<?xml version="1.0" encoding="UTF-8" standalone="no"?>
<svg
   xmlns:dc="http://purl.org/dc/elements/1.1/"
   xmlns:cc="http://creativecommons.org/ns#"
   xmlns:rdf="http://www.w3.org/1999/02/22-rdf-syntax-ns#"
   xmlns:svg="http://www.w3.org/2000/svg"
   xmlns="http://www.w3.org/2000/svg"
   xmlns:sodipodi="http://sodipodi.sourceforge.net/DTD/sodipodi-0.dtd"
   xmlns:inkscape="http://www.inkscape.org/namespaces/inkscape"
   height="64"
   viewBox="0 0 64 64"
   width="64"
   version="1.1"
   id="svg4971"
   sodipodi:docname="elixir-lang-icon.svg"
   inkscape:version="0.92.4 (5da689c313, 2019-01-14)">
  <metadata
     id="metadata4977">
    <rdf:RDF>
      <cc:Work
         rdf:about="">
        <dc:format>image/svg+xml</dc:format>
        <dc:type
           rdf:resource="http://purl.org/dc/dcmitype/StillImage" />
        <dc:title></dc:title>
      </cc:Work>
    </rdf:RDF>
  </metadata>
  <defs
     id="defs4975" />
  <sodipodi:namedview
     pagecolor="#ffffff"
     bordercolor="#666666"
     borderopacity="1"
     objecttolerance="10"
     gridtolerance="10"
     guidetolerance="10"
     inkscape:pageopacity="0"
     inkscape:pageshadow="2"
     inkscape:window-width="1503"
     inkscape:window-height="1251"
     id="namedview4973"
     showgrid="false"
     inkscape:zoom="3.6875"
     inkscape:cx="32"
     inkscape:cy="32"
     inkscape:window-x="89"
     inkscape:window-y="-9"
     inkscape:window-maximized="1"
     inkscape:current-layer="svg4971" />
  <linearGradient
     id="a"
     gradientTransform="matrix(.12970797 0 0 .19997863 11.409779 -.000001)"
     gradientUnits="userSpaceOnUse"
     x1="167.51685"
     x2="160.31"
     y1="24.393208"
     y2="320.03421">
    <stop
       offset="0"
       stop-color="#d9d8dc"
       id="stop4914" />
    <stop
       offset="1"
       stop-color="#fff"
       stop-opacity=".385275"
       id="stop4916" />
  </linearGradient>
  <linearGradient
     id="b"
     gradientTransform="matrix(.11420937 0 0 .22711641 11.409779 -.000001)"
     gradientUnits="userSpaceOnUse"
     x1="199.03606"
     x2="140.0712"
     y1="21.412943"
     y2="278.40781">
    <stop
       offset="0"
       stop-color="#8d67af"
       stop-opacity=".671932"
       id="stop4919" />
    <stop
       offset="1"
       stop-color="#9f8daf"
       id="stop4921" />
  </linearGradient>
  <linearGradient
     id="c"
     gradientTransform="matrix(.12266694 0 0 .21145732 11.409779 -.000001)"
     gradientUnits="userSpaceOnUse"
     x1="206.42825"
     x2="206.42825"
     y1="100.91758"
     y2="294.31174">
    <stop
       offset="0"
       stop-color="#26053d"
       stop-opacity=".761634"
       id="stop4924" />
    <stop
       offset="1"
       stop-color="#b7b4b4"
       stop-opacity=".277683"
       id="stop4926" />
  </linearGradient>
  <linearGradient
     id="d"
     gradientTransform="matrix(.18477958 0 0 .14037711 11.409779 -.000001)"
     gradientUnits="userSpaceOnUse"
     x1="23.483095"
     x2="112.93069"
     y1="171.71753"
     y2="351.72263">
    <stop
       offset="0"
       stop-color="#91739f"
       stop-opacity=".45955"
       id="stop4929" />
    <stop
       offset="1"
       stop-color="#32054f"
       stop-opacity=".539912"
       id="stop4931" />
  </linearGradient>
  <linearGradient
     id="e"
     gradientTransform="matrix(.14183937 0 0 .18287462 11.409779 -.000001)"
     gradientUnits="userSpaceOnUse"
     x1="226.7811"
     x2="67.803513"
     y1="317.25201"
     y2="147.4131">
    <stop
       offset="0"
       stop-color="#463d49"
       stop-opacity=".331182"
       id="stop4934" />
    <stop
       offset="1"
       stop-color="#340a50"
       stop-opacity=".821388"
       id="stop4936" />
  </linearGradient>
  <linearGradient
     id="f"
     gradientTransform="matrix(.10596912 0 0 .24477717 11.409779 -.000001)"
     gradientUnits="userSpaceOnUse"
     x1="248.0164"
     x2="200.70529"
     y1="88.755211"
     y2="255.00513">
    <stop
       offset="0"
       stop-color="#715383"
       stop-opacity=".145239"
       id="stop4939" />
    <stop
       offset="1"
       stop-color="#f4f4f4"
       stop-opacity=".233639"
       id="stop4941" />
  </linearGradient>
  <linearGradient
     id="g"
     gradientTransform="matrix(.09173097 0 0 .28277061 11.409779 -.000001)"
     gradientUnits="userSpaceOnUse"
     x1="307.5639"
     x2="156.45103"
     y1="109.963"
     y2="81.526764">
    <stop
       offset="0"
       stop-color="#a5a1a8"
       stop-opacity=".356091"
       id="stop4944" />
    <stop
       offset="1"
       stop-color="#370c50"
       stop-opacity=".581975"
       id="stop4946" />
  </linearGradient>
  <g
     id="g5873">
    <g
       id="g4969"
       fill-rule="evenodd">
      <path
         id="path4949"
         fill="url(#a)"
         d="m34.033696.16105439c-4.649706 1.64813521-9.138214 6.45860111-13.465525 14.43139761-6.490966 11.959195-14.8743608 28.953434-3.330358 42.408733 5.340603 6.224826 14.158605 9.898679 25.730911 4.080095 9.296536-4.67432 11.882014-18.088489 8.544419-24.392035-6.884785-13.002951-13.869705-16.210096-15.740131-24.273959-1.24695-5.375909-1.826722-9.4606528-1.739316-12.25423161z" />
      <path
         id="path4951"
         fill="url(#b)"
         d="m34.033696-.00000095c-4.673294 1.66512615-9.161803 6.47559215-13.465525 14.43139795-6.455581 11.933709-14.8743608 28.953433-3.330358 42.408733 5.340603 6.224826 14.045121 8.236341 18.875071 4.544505 3.148725-2.40677 5.290239-4.700935 6.52406-9.534696 1.373834-5.382292.319746-12.628547-.402523-15.957361-.913952-4.212248-1.213096-8.835494-.897429-13.869735-.11123-.135513-.194345-.236927-.249347-.30424-2.514528-3.077324-4.454883-5.757778-5.314633-9.464373-1.24695-5.3759083-1.826722-9.4606522-1.739316-12.25423095z" />
      <path
         id="path4953"
         fill="url(#c)"
         d="m30.164134 2.0937185c-4.352812 3.440161-7.589227 9.2104935-9.709246 17.3109975-3.180029 12.150756-3.524621 23.355714-2.403077 29.873065 2.17418 12.634271 13.445838 17.430108 25.007417 11.549319 7.115151-3.619115 10.078654-11.387504 9.921651-19.81976-.162566-8.731042-17.034649-18.626155-20.022678-25.912745-1.992018-4.857728-2.923374-9.1913529-2.794067-13.0008765z" />
      <path
         id="path4955"
         fill="url(#d)"
         d="m41.199436 24.874043c5.220347 6.694959 6.358283 11.355459 3.413807 13.981497-4.416714 3.93906-15.217419 6.509155-21.936599 1.744215-4.479454-3.176628-6.174316-9.991206-5.084588-20.443737-1.849118 3.861723-3.412567 7.773671-4.690348 11.735849-1.27778 3.962178-1.650915 8.108529-1.119404 12.439052 1.601351 3.239683 5.494817 5.403396 11.680397 6.491139 9.278371 1.631615 18.060122.825407 23.95271-2.145065 3.928391-1.980314 5.786494-3.951651 5.574312-5.91401.141766-2.897853-.751847-5.656438-2.680832-8.275753-1.928988-2.619317-4.965472-5.823713-9.109455-9.613187z" />
      <path
         id="path4957"
         fill="url(#e)"
         d="m20.799251 18.189006c-.04364 4.835125 1.199603 9.431489 3.729718 13.789093 3.795174 6.536405 8.225212 12.995204 14.854367 18.348954 4.419436 3.569167 7.950747 4.722294 10.593929 3.459382-2.170994 3.88538-4.479397 5.78925-6.925211 5.711609-3.668718-.11646-8.142117-1.719788-15.309635-10.333032-4.778347-5.742163-8.047222-11.17387-9.806624-16.295121.279004-2.031676.574857-4.055285.887559-6.070826.312702-2.015542.971335-4.885561 1.975897-8.610059z" />
      <path
         id="path4959"
         fill="url(#f)"
         d="m32.011273 24.824412c.405511 3.938827 1.93822 10.239557 0 14.434591-1.938221 4.195036-10.890677 11.773476-8.419446 18.449432 2.47123 6.675957 8.493644 5.177168 12.271355 2.100547 3.777712-3.076623 5.799822-8.079349 6.248034-11.597523.448213-3.518171-1.072381-10.287708-1.56693-16.17596-.329698-3.9255-.106002-7.291185.671093-10.097054l-1.15758-1.456665-6.813456-2.017361c-1.092388 1.614111-1.503411 3.73411-1.23307 6.359993z" />
      <path
         id="path4961"
         fill="url(#g)"
         d="m34.443394 5.3148253c-2.205235.9318217-4.294586 2.7781986-6.268054 5.5391307-2.960203 4.141399-4.467906 6.623907-3.3519 14.833191.744003 5.472857 1.276531 10.50778 1.597582 15.104773l9.543032-27.726988c-.350835-1.412815-.642632-2.688766-.875391-3.8278548-.232758-1.1390887-.447848-2.446506-.645269-3.9222519z" />
      <path
         id="path4963"
         fill-opacity=".316321"
         fill="#330a4c"
         d="m35.945755 13.009805c-2.422551 1.413992-4.299708 4.310913-5.631469 8.690763-1.331762 4.379852-2.550147 10.50277-3.655157 18.368756 1.47381-5.003069 2.451455-8.626771 2.932936-10.871105.722221-3.366501.968912-8.127131 2.886564-11.359156 1.278437-2.154684 2.434144-3.764436 3.467126-4.829258z" />
      <path
         id="path4965"
         fill="#fff"
         d="m24.728788 59.937995c3.986659.569558 6.071303 1.075916 6.253931 1.519073.273942.664733-.504655 1.272785-2.717611.864177-1.475304-.272404-2.654077-1.06682-3.53632-2.38325z" />
      <path
         id="path4967"
         fill-opacity=".603261"
         fill="#ededed"
         d="m26.731652 5.3148253c-2.192807 2.6195801-4.092897 5.3967527-5.700271 8.3315187s-2.755892 5.124204-3.445555 6.568313c-.213753 1.077096-.318084 2.666371-.312993 4.767823.0051 2.101452.186856 4.438039.545295 7.009761.313817-5.035952 1.274508-9.924178 2.882072-14.664678 1.607565-4.740501 3.618049-8.7447464 6.031452-12.0127377z" />
    </g>
  </g>
</svg>
