<?xml version="1.0" encoding="UTF-8" standalone="no"?>
<!-- Created with Inkscape (http://www.inkscape.org/) -->

<svg
   xmlns:dc="http://purl.org/dc/elements/1.1/"
   xmlns:cc="http://creativecommons.org/ns#"
   xmlns:rdf="http://www.w3.org/1999/02/22-rdf-syntax-ns#"
   xmlns:svg="http://www.w3.org/2000/svg"
   xmlns="http://www.w3.org/2000/svg"
   xmlns:sodipodi="http://sodipodi.sourceforge.net/DTD/sodipodi-0.dtd"
   xmlns:inkscape="http://www.inkscape.org/namespaces/inkscape"
   width="297mm"
   height="297mm"
   viewBox="0 0 297 297"
   version="1.1"
   id="svg8"
   inkscape:version="0.92.4 (5da689c313, 2019-01-14)"
   sodipodi:docname="clink_5.svg"
   inkscape:export-filename="D:\ResDev\_Orgs\DevelopersPackages.org\DevPack_web\org.dev-pack.plink\assets\logos\clink5.png"
   inkscape:export-xdpi="247.71001"
   inkscape:export-ydpi="247.71001">
  <defs
     id="defs2" />
  <sodipodi:namedview
     id="base"
     pagecolor="#ffffff"
     bordercolor="#666666"
     borderopacity="1.0"
     inkscape:pageopacity="0.0"
     inkscape:pageshadow="2"
     inkscape:zoom="0.49497475"
     inkscape:cx="403.98447"
     inkscape:cy="315.95653"
     inkscape:document-units="mm"
     inkscape:current-layer="layer4"
     showgrid="false"
     inkscape:window-width="1822"
     inkscape:window-height="1051"
     inkscape:window-x="1689"
     inkscape:window-y="-9"
     inkscape:window-maximized="1" />
  <metadata
     id="metadata5">
    <rdf:RDF>
      <cc:Work
         rdf:about="">
        <dc:format>image/svg+xml</dc:format>
        <dc:type
           rdf:resource="http://purl.org/dc/dcmitype/StillImage" />
        <dc:title></dc:title>
      </cc:Work>
    </rdf:RDF>
  </metadata>
  <g
     inkscape:label="cheers"
     inkscape:groupmode="layer"
     id="layer1" />
  <g
     inkscape:groupmode="layer"
     id="layer3"
     inkscape:label="lambda"
     style="display:inline"
     transform="translate(0,87)" />
  <g
     inkscape:groupmode="layer"
     id="layer4"
     inkscape:label="ident"
     transform="translate(0,87)">
    <path
       inkscape:connector-curvature="0"
       style="display:inline;fill:#c13357;fill-opacity:1;stroke:none;stroke-width:0.25140855px;stroke-linecap:butt;stroke-linejoin:miter;stroke-opacity:1"
       d="M 107.38944,-74.786617 C 45.185561,-15.964391 32.684989,12.129426 26.758928,32.601162 c -2.356956,6.801469 -3.703507,7.070412 -6.711433,9.674266 l -3.569314,2.671195 c 0.920333,5.275056 4.219532,6.726487 6.251335,7.403752 l 3.176489,-3.228524 c 3.120159,-3.097694 4.713843,-5.970565 10.280749,-7.092924 32.234176,-7.003488 59.619898,-24.871564 112.685086,-71.920847 -16.16195,-21.280044 -23.8838,-28.373552 -41.4824,-44.894697 z m -0.0895,4.830778 c 20.02291,17.329244 20.29255,20.39994 36.8137,39.884207 -14.00743,12.660286 -27.31452,23.2553638 -27.31452,23.2553638 L 50.804297,-7.4447851 C 78.153965,-44.97665 107.2996,-69.955839 107.2996,-69.955839 Z"
       id="path842"
       sodipodi:nodetypes="ccccccccccccccc"
       inkscape:export-xdpi="247.71001"
       inkscape:export-ydpi="247.71001" />
    <path
       inkscape:connector-curvature="0"
       id="path837"
       style="font-style:normal;font-variant:normal;font-weight:500;font-stretch:normal;font-size:346.66668701px;line-height:1.25;font-family:'BIZ UDMincho';-inkscape-font-specification:'BIZ UDMincho, Medium';font-variant-ligatures:normal;font-variant-caps:normal;font-variant-numeric:normal;font-feature-settings:normal;text-align:start;letter-spacing:0px;word-spacing:0px;writing-mode:lr-tb;text-anchor:start;display:inline;fill:#c13357;fill-opacity:1;stroke:none;stroke-width:0.26690704"
       d="m 155.91934,1.779006 v -4.340705 q 0,-6.4685238 -1.63081,-9.277231 -1.72673,-2.851254 -5.85169,-2.851254 -4.46072,0 -8.29788,6.1706369 l -3.26159,-1.8299129 q 2.44617,-4.979069 5.9476,-7.958006 3.64531,-3.106622 7.57842,-3.106622 5.75577,0 8.5857,5.362107 1.87063,3.532159 1.87063,8.5963351 V 16.588461 q 0,13.234886 1.39092,18.001145 2.01454,6.85151 7.48251,6.85151 6.33135,0 11.17582,-8.553743 l 2.92584,2.468248 q -6.33134,12.979551 -15.87635,12.979551 -6.18744,0 -9.73678,-6.255725 -3.26167,-5.745043 -3.26167,-15.873352 V 13.481884 l -22.68731,33.10849 h -8.53769 z" />
    <path
       inkscape:connector-curvature="0"
       style="display:inline;fill:#c13357;fill-opacity:1;stroke:none;stroke-width:0.25140855px;stroke-linecap:butt;stroke-linejoin:miter;stroke-opacity:1"
       d="m 193.87403,-75.28945 c 62.20388,58.822222 74.70442,86.916048 80.63049,107.387786 2.35694,6.801467 3.7035,7.070413 6.71142,9.674265 l 3.56931,2.671195 c -0.92033,5.275056 -4.21953,6.726488 -6.25137,7.403752 l -3.17647,-3.228526 c -3.12014,-3.097692 -4.71381,-5.970564 -10.28073,-7.092923 -32.23416,-7.003492 -59.6199,-24.871561 -112.68511,-71.920848 16.16203,-21.280049 23.88385,-28.373559 41.48246,-44.894701 z m 0.0895,4.830777 c -20.02292,17.329244 -20.29256,20.399941 -36.81368,39.884201 14.0071,12.660286 27.31417,23.2553769 27.31417,23.2553769 L 250.4591,-7.9476215 C 223.10947,-45.479493 193.96388,-70.458673 193.96388,-70.458673 Z"
       id="path842-6"
       sodipodi:nodetypes="ccccccccccccccc"
       inkscape:export-xdpi="247.71001"
       inkscape:export-ydpi="247.71001" />
    <g
       aria-label="CL Combinator"
       transform="matrix(0.26480135,0,0,0.26480135,-34.809771,-90.067616)"
       style="font-style:normal;font-variant:normal;font-weight:normal;font-stretch:normal;font-size:186.66667175px;line-height:1.25;font-family:'Sitka Banner';-inkscape-font-specification:'Sitka Banner, Normal';font-variant-ligatures:normal;font-variant-caps:normal;font-variant-numeric:normal;font-feature-settings:normal;text-align:center;letter-spacing:0px;word-spacing:0px;writing-mode:lr-tb;text-anchor:middle;fill:#c13357;fill-opacity:1;stroke:none"
       id="flowRoot1149">
      <path
         d="m 250.53636,667.43113 v 6.96889 q -3.40148,2.90371 -7.88148,6.0563 -4.48,3.06963 -9.78963,5.72444 -5.22667,2.57185 -11.11704,4.23111 -5.89037,1.74223 -12.02963,1.74223 -12.52741,0 -22.64889,-4.06519 -10.03852,-4.14815 -17.17333,-11.78074 -7.13482,-7.71556 -11.03408,-18.66667 -3.81629,-11.03407 -3.81629,-24.80592 0,-13.27408 4.14815,-24.30815 4.23111,-11.03408 11.61481,-18.91556 7.38371,-7.88148 17.33926,-12.19555 10.03852,-4.39704 21.7363,-4.39704 4.06518,0 8.96,0.58074 4.89481,0.58074 9.78963,1.49333 4.89481,0.91259 9.37481,2.07408 4.48,1.16148 7.79852,2.32296 v 26.46519 h -4.39704 l -5.30963,-14.51852 q -0.41481,-1.5763 -1.3274,-2.32297 -0.9126,-0.74666 -2.07408,-1.41037 -2.65481,-1.49333 -5.97333,-2.82074 -3.31852,-1.32741 -6.96889,-2.32296 -3.65037,-1.07852 -7.3837,-1.65926 -3.65037,-0.58074 -7.05186,-0.58074 -7.3837,0 -13.60592,3.15259 -6.22222,3.06963 -10.70222,9.29185 -4.48,6.22223 -6.96889,15.59704 -2.48889,9.29185 -2.48889,21.7363 0,25.96741 11.03407,38.99259 11.03408,13.02519 31.60889,13.02519 6.80297,0 12.1126,-1.41037 5.30962,-1.49334 9.54074,-3.65037 4.23111,-2.24 7.3837,-4.81186 3.23556,-2.57185 5.80741,-4.81185 z"
         style="font-style:normal;font-variant:normal;font-weight:normal;font-stretch:normal;font-size:186.66667175px;font-family:'Sitka Banner';-inkscape-font-specification:'Sitka Banner, Normal';font-variant-ligatures:normal;font-variant-caps:normal;font-variant-numeric:normal;font-feature-settings:normal;text-align:center;writing-mode:lr-tb;text-anchor:middle;fill:#c13357;fill-opacity:1"
         id="path1192"
         inkscape:connector-curvature="0" />
      <path
         d="m 256.89567,685.84891 10.53629,-2.24 q 1.65926,-0.41481 2.73778,-1.74222 1.16148,-1.32741 1.16148,-3.15259 v -92.25482 q 0,-1.90815 -1.16148,-3.23556 -1.07852,-1.3274 -2.73778,-1.74222 l -10.53629,-2.15704 v -3.89926 h 44.38518 v 3.89926 l -11.03407,2.15704 q -1.65926,0.33185 -2.82074,1.74222 -1.16148,1.41037 -1.16148,3.23556 v 96.9837 h 41.97926 q 0.82963,0 1.41037,-0.41481 0.6637,-0.49778 1.07852,-1.16148 0.41481,-0.74667 0.6637,-1.49334 0.24889,-0.74666 0.41481,-1.3274 l 6.30519,-21.90223 h 4.39704 v 32.60445 h -85.61778 z"
         style="font-style:normal;font-variant:normal;font-weight:normal;font-stretch:normal;font-size:186.66667175px;font-family:'Sitka Banner';-inkscape-font-specification:'Sitka Banner, Normal';font-variant-ligatures:normal;font-variant-caps:normal;font-variant-numeric:normal;font-feature-settings:normal;text-align:center;writing-mode:lr-tb;text-anchor:middle;fill:#c13357;fill-opacity:1"
         id="path1194"
         inkscape:connector-curvature="0" />
      <path
         d="m 486.42178,667.43113 v 6.96889 q -3.40148,2.90371 -7.88148,6.0563 -4.48,3.06963 -9.78963,5.72444 -5.22667,2.57185 -11.11704,4.23111 -5.89037,1.74223 -12.02963,1.74223 -12.5274,0 -22.64889,-4.06519 -10.03851,-4.14815 -17.17333,-11.78074 -7.13481,-7.71556 -11.03407,-18.66667 -3.8163,-11.03407 -3.8163,-24.80592 0,-13.27408 4.14815,-24.30815 4.23111,-11.03408 11.61481,-18.91556 7.38371,-7.88148 17.33926,-12.19555 10.03852,-4.39704 21.7363,-4.39704 4.06519,0 8.96,0.58074 4.89481,0.58074 9.78963,1.49333 4.89481,0.91259 9.37481,2.07408 4.48001,1.16148 7.79852,2.32296 v 26.46519 h -4.39703 l -5.30963,-14.51852 q -0.41482,-1.5763 -1.32741,-2.32297 -0.91259,-0.74666 -2.07407,-1.41037 -2.65482,-1.49333 -5.97334,-2.82074 -3.31852,-1.32741 -6.96889,-2.32296 -3.65037,-1.07852 -7.3837,-1.65926 -3.65037,-0.58074 -7.05185,-0.58074 -7.38371,0 -13.60593,3.15259 -6.22222,3.06963 -10.70222,9.29185 -4.48,6.22223 -6.96889,15.59704 -2.48889,9.29185 -2.48889,21.7363 0,25.96741 11.03407,38.99259 11.03408,13.02519 31.60889,13.02519 6.80297,0 12.1126,-1.41037 5.30963,-1.49334 9.54074,-3.65037 4.23111,-2.24 7.3837,-4.81186 3.23556,-2.57185 5.80741,-4.81185 z"
         style="font-style:normal;font-variant:normal;font-weight:normal;font-stretch:normal;font-size:186.66667175px;font-family:'Sitka Banner';-inkscape-font-specification:'Sitka Banner, Normal';font-variant-ligatures:normal;font-variant-caps:normal;font-variant-numeric:normal;font-feature-settings:normal;text-align:center;writing-mode:lr-tb;text-anchor:middle;fill:#c13357;fill-opacity:1"
         id="path1196"
         inkscape:connector-curvature="0" />
      <path
         d="m 531.19293,691.98817 q -8.71111,0 -15.76296,-2.98667 -6.96889,-2.98666 -11.94667,-8.54518 -4.89481,-5.55852 -7.54963,-13.35704 -2.65481,-7.79852 -2.65481,-17.42222 0,-8.87704 2.65481,-16.5926 2.65482,-7.79851 7.6326,-13.60592 4.97777,-5.80741 12.11259,-9.12593 7.21778,-3.31852 16.3437,-3.31852 9.78963,0 16.92445,3.56741 7.13481,3.48445 11.78074,9.37482 4.64593,5.8074 6.88593,13.52296 2.32296,7.63259 2.32296,15.84593 0,8.79407 -2.65482,16.59259 -2.57185,7.71555 -7.54963,13.52296 -4.97777,5.80741 -12.19555,9.20889 -7.13482,3.31852 -16.34371,3.31852 z m 1.16148,-5.47556 q 6.63704,0 10.95112,-3.40148 4.31407,-3.48444 6.80296,-8.71111 2.57185,-5.30963 3.56741,-11.53185 0.99555,-6.22222 0.99555,-11.8637 0,-6.88593 -1.3274,-13.77186 -1.24445,-6.88592 -4.06519,-12.36148 -2.82074,-5.55852 -7.3837,-8.96 -4.56297,-3.48444 -11.03408,-3.48444 -4.39704,0 -7.71555,1.57629 -3.31852,1.5763 -5.80741,4.31408 -2.48889,2.65481 -4.14815,6.22222 -1.65926,3.48444 -2.73778,7.46667 -0.99555,3.89926 -1.41037,7.96444 -0.41481,4.06519 -0.41481,7.79852 0,4.14815 0.41481,8.62815 0.49778,4.48 1.5763,8.79407 1.16148,4.23111 2.9037,8.13037 1.82519,3.89926 4.48,6.80297 2.65482,2.9037 6.13926,4.64592 3.56741,1.74222 8.21333,1.74222 z"
         style="font-style:normal;font-variant:normal;font-weight:normal;font-stretch:normal;font-size:186.66667175px;font-family:'Sitka Banner';-inkscape-font-specification:'Sitka Banner, Normal';font-variant-ligatures:normal;font-variant-caps:normal;font-variant-numeric:normal;font-feature-settings:normal;text-align:center;writing-mode:lr-tb;text-anchor:middle;fill:#c13357;fill-opacity:1"
         id="path1198"
         inkscape:connector-curvature="0" />
      <path
         d="m 577.92765,686.18076 9.04297,-2.07407 q 1.65926,-0.41482 2.57185,-1.74222 0.99556,-1.32741 0.99556,-3.1526 v -54.67259 q 0,-2.15704 -1.07852,-3.56741 -1.07852,-1.41037 -3.89926,-2.40592 l -7.6326,-2.73778 v -2.24 l 26.13334,-5.89037 v 13.44 0 q 2.9037,-4.06519 5.80741,-6.72 2.98666,-2.73778 6.05629,-4.31408 3.1526,-1.65926 6.47111,-2.32296 3.31852,-0.74667 7.05186,-0.74667 3.98222,0 7.63259,0.9126 3.65037,0.82963 6.72,2.73777 3.06963,1.90815 5.30963,4.89482 2.32296,2.9037 3.56741,7.05185 3.89926,-5.55852 7.46666,-8.62815 3.65037,-3.15259 6.96889,-4.64592 3.40148,-1.5763 6.55408,-1.90815 3.15259,-0.41482 6.05629,-0.41482 5.22667,0 9.78963,1.65926 4.56297,1.5763 7.88148,5.06074 3.40149,3.40149 5.30963,8.87704 1.99112,5.39259 1.99112,12.94222 v 43.80445 q 0,1.82518 0.99555,2.98667 1.07852,1.16148 2.73778,1.57629 l 7.96444,2.07408 v 3.73333 h -38.24592 v -3.56741 l 9.04296,-2.07407 q 1.65926,-0.41482 2.57185,-1.74222 0.99556,-1.32741 0.99556,-3.1526 v -38.41185 q 0,-5.55852 -0.66371,-10.03852 -0.58074,-4.56296 -2.40592,-7.71555 -1.74222,-3.23556 -5.14371,-4.97778 -3.31851,-1.74222 -8.79407,-1.74222 -2.32296,0 -4.97778,0.49777 -2.57185,0.49778 -5.1437,1.5763 -2.57185,0.99556 -4.97778,2.73778 -2.32296,1.65926 -4.06519,4.06518 v 54.17482 q 0,1.90815 0.99556,3.06963 1.07852,1.07852 2.73778,1.49333 l 7.96444,2.07408 v 3.73333 h -38.24592 v -3.56741 l 9.04296,-2.07407 q 1.65926,-0.41482 2.57185,-1.65926 0.99556,-1.24445 0.99556,-3.06963 v -38.57778 q 0,-5.55852 -0.66371,-10.03852 -0.58074,-4.56296 -2.40592,-7.71555 -1.82519,-3.23556 -5.22667,-4.97778 -3.31852,-1.74222 -8.87704,-1.74222 -2.40592,0 -5.06074,0.49777 -2.57185,0.49778 -5.1437,1.5763 -2.48889,0.99556 -4.81185,2.65481 -2.24,1.65926 -3.98223,3.98223 v 54.17481 q -0.16592,1.90815 0.9126,3.1526 1.16148,1.16148 2.82074,1.57629 l 7.96444,2.07408 v 3.73333 h -38.24593 z"
         style="font-style:normal;font-variant:normal;font-weight:normal;font-stretch:normal;font-size:186.66667175px;font-family:'Sitka Banner';-inkscape-font-specification:'Sitka Banner, Normal';font-variant-ligatures:normal;font-variant-caps:normal;font-variant-numeric:normal;font-feature-settings:normal;text-align:center;writing-mode:lr-tb;text-anchor:middle;fill:#c13357;fill-opacity:1"
         id="path1200"
         inkscape:connector-curvature="0" />
      <path
         d="m 730.98105,581.89632 q 0,-2.15704 -1.16148,-3.65038 -1.16148,-1.49333 -3.98222,-2.48888 l -7.63259,-2.73778 v -2.24 l 26.71407,-6.38815 v 52.43259 4.14815 q 3.31852,-4.81185 6.96889,-7.63259 3.65037,-2.82074 7.05185,-4.14815 3.48445,-1.41037 6.47112,-1.74222 3.06963,-0.41482 5.1437,-0.41482 7.46667,0 13.27407,2.90371 5.89037,2.9037 9.95556,8.13037 4.06518,5.22666 6.22222,12.52741 2.15704,7.21777 2.15704,15.84592 0,9.54074 -2.65482,17.83704 -2.65481,8.2963 -7.79851,14.51852 -5.06075,6.13926 -12.44445,9.70667 -7.30074,3.48444 -16.67556,3.48444 -3.48444,0 -7.30074,-0.33185 -3.81629,-0.24889 -7.79852,-1.07852 -3.98222,-0.82963 -8.13037,-2.24 -4.14814,-1.49333 -8.37926,-3.8163 z m 13.93778,97.14963 q 1.07852,1.16148 3.06963,2.48889 1.99111,1.24444 4.31408,2.40592 2.40592,1.07852 4.81185,1.82519 2.40592,0.6637 4.39704,0.6637 6.72,0 11.61481,-2.82074 4.97778,-2.9037 8.13037,-7.63259 3.23556,-4.81185 4.72889,-10.95111 1.5763,-6.13926 1.5763,-12.69334 0,-7.79852 -1.49334,-14.35259 -1.41037,-6.63704 -4.48,-11.44889 -2.98666,-4.81185 -7.71555,-7.46667 -4.64593,-2.73777 -11.11704,-2.73777 -1.90815,0 -4.31407,0.41481 -2.32297,0.41482 -4.81186,1.41037 -2.40592,0.99556 -4.72888,2.73778 -2.24,1.74222 -3.98223,4.31407 z"
         style="font-style:normal;font-variant:normal;font-weight:normal;font-stretch:normal;font-size:186.66667175px;font-family:'Sitka Banner';-inkscape-font-specification:'Sitka Banner, Normal';font-variant-ligatures:normal;font-variant-caps:normal;font-variant-numeric:normal;font-feature-settings:normal;text-align:center;writing-mode:lr-tb;text-anchor:middle;fill:#c13357;fill-opacity:1"
         id="path1202"
         inkscape:connector-curvature="0" />
      <path
         d="m 828.83395,588.11854 q -2.07408,0 -3.89926,-0.74667 -1.82519,-0.82963 -3.1526,-2.15704 -1.3274,-1.3274 -2.15703,-3.15259 -0.74667,-1.82518 -0.74667,-3.98222 0,-2.07408 0.74667,-3.89926 0.82963,-1.82519 2.15703,-3.15259 1.32741,-1.32741 3.1526,-2.07408 1.82518,-0.82963 3.89926,-0.82963 2.07407,0 3.89926,0.82963 1.90814,0.74667 3.31851,2.07408 1.41037,1.3274 2.15704,3.15259 0.82963,1.82518 0.82963,3.89926 0,2.15704 -0.82963,3.98222 -0.74667,1.82519 -2.15704,3.15259 -1.41037,1.32741 -3.31851,2.15704 -1.82519,0.74667 -3.89926,0.74667 z m -19.16445,97.8963 9.37482,-2.07408 q 1.65926,-0.41481 2.65481,-1.65926 1.07852,-1.24444 1.07852,-3.06963 v -54.67259 q 0,-2.15704 -1.16148,-3.65037 -1.16148,-1.49333 -3.98222,-2.48889 l -7.6326,-2.73778 v -2.24 l 26.71408,-5.72444 v 71.51407 q 0,1.90815 0.99555,3.1526 1.07852,1.16148 2.73778,1.57629 l 8.62815,2.07408 v 3.73333 H 809.6695 Z"
         style="font-style:normal;font-variant:normal;font-weight:normal;font-stretch:normal;font-size:186.66667175px;font-family:'Sitka Banner';-inkscape-font-specification:'Sitka Banner, Normal';font-variant-ligatures:normal;font-variant-caps:normal;font-variant-numeric:normal;font-feature-settings:normal;text-align:center;writing-mode:lr-tb;text-anchor:middle;fill:#c13357;fill-opacity:1"
         id="path1204"
         inkscape:connector-curvature="0" />
      <path
         d="m 854.48048,686.01484 9.04296,-2.07408 q 1.65926,-0.41481 2.65482,-1.65926 1.07852,-1.24444 1.07852,-3.06963 v -54.67259 q 0,-2.15704 -1.16149,-3.65037 -1.16148,-1.49333 -3.98222,-2.48889 l -7.63259,-2.73778 v -2.24 l 26.29926,-5.72444 v 13.44 0 q 3.15259,-4.39704 6.30518,-7.13482 3.23556,-2.82074 6.47112,-4.31407 3.23555,-1.5763 6.55407,-2.07408 3.31852,-0.58074 6.72,-0.58074 5.39259,0 10.12148,1.65926 4.72889,1.5763 8.21334,5.06074 3.48444,3.40149 5.47555,8.87704 1.99111,5.39259 1.99111,12.94222 v 43.30667 q 0,2.07408 1.07852,3.40148 1.16148,1.24445 2.65482,1.65926 l 7.96444,2.07408 v 3.73333 h -38.32889 v -3.73333 l 9.12593,-2.07408 q 1.57629,-0.41481 2.57185,-1.65926 0.99555,-1.3274 0.99555,-3.40148 v -38.08 q 0,-5.55852 -0.6637,-10.03852 -0.58074,-4.56296 -2.57185,-7.71555 -1.90815,-3.23556 -5.39259,-4.97778 -3.48445,-1.74222 -9.20889,-1.74222 -2.48889,0 -5.22667,0.49777 -2.65482,0.49778 -5.30963,1.5763 -2.57185,0.99556 -4.97778,2.65481 -2.32296,1.65926 -4.14815,3.98223 v 54.17481 q 0,1.90815 0.99556,3.1526 1.07852,1.16148 2.73778,1.57629 l 7.96444,2.07408 v 3.73333 h -38.41185 z"
         style="font-style:normal;font-variant:normal;font-weight:normal;font-stretch:normal;font-size:186.66667175px;font-family:'Sitka Banner';-inkscape-font-specification:'Sitka Banner, Normal';font-variant-ligatures:normal;font-variant-caps:normal;font-variant-numeric:normal;font-feature-settings:normal;text-align:center;writing-mode:lr-tb;text-anchor:middle;fill:#c13357;fill-opacity:1"
         id="path1206"
         inkscape:connector-curvature="0" />
      <path
         d="m 998.50192,677.88447 q -2.90371,4.39703 -6.38815,7.05185 -3.40148,2.65481 -6.96889,4.14815 -3.48445,1.41037 -6.96889,1.82518 -3.40148,0.49778 -6.30519,0.49778 -4.72889,0 -8.62815,-1.74222 -3.81629,-1.74223 -6.63703,-4.64593 -2.73778,-2.9037 -4.31408,-6.80296 -1.49333,-3.89926 -1.49333,-8.21334 0,-5.06074 1.74222,-9.04296 1.82519,-3.98222 4.81185,-6.96889 3.06963,-3.06963 6.96889,-5.1437 3.89926,-2.15704 8.04741,-3.48445 4.14815,-1.3274 8.2963,-1.90814 4.14815,-0.66371 7.71555,-0.66371 0.74667,0 2.15704,0.16593 1.41037,0.083 2.9037,0.24889 1.5763,0.083 2.98667,0.16592 1.49333,0.083 2.32296,0.083 l 0.083,-14.93334 q 0,-3.98222 -0.74667,-6.63704 -0.6637,-2.65481 -2.15704,-4.14814 -1.41037,-1.5763 -3.65037,-2.15704 -2.24,-0.6637 -5.39259,-0.6637 -4.06519,0 -7.96444,1.41037 -3.8163,1.3274 -7.21778,3.31851 -3.40148,1.99112 -6.30519,4.23112 -2.9037,2.15703 -4.97778,3.73333 h -1.82518 l -2.57185,-13.10815 q 2.40592,-1.32741 5.30963,-2.65481 2.98666,-1.41037 6.38815,-2.40593 3.40148,-1.07852 7.21777,-1.74222 3.89926,-0.66371 8.13037,-0.66371 5.06074,0 10.37037,1.41037 5.30963,1.32741 9.6237,4.39704 4.3141,3.06963 6.9689,8.13037 2.7377,5.06074 2.6548,12.36148 l -0.4978,43.4726 q 0,1.24444 0.4148,2.24 0.4148,0.91259 1.2445,1.65926 0.9126,0.6637 2.157,1.07852 1.3274,0.33185 3.0696,0.33185 0.4148,0 1.3274,-0.16593 0.9126,-0.16592 1.9911,-0.33185 1.1615,-0.24889 2.24,-0.49778 1.1615,-0.33185 1.9912,-0.58074 h 0.8296 v 3.98222 q -1.1615,0.9126 -3.0696,2.15704 -1.8252,1.16148 -4.0652,2.24 -2.1571,0.99556 -4.563,1.74222 -2.323,0.74667 -4.48,0.74667 -3.1526,0 -5.5585,-0.6637 -2.4059,-0.66371 -4.0652,-2.15704 -1.5763,-1.5763 -2.40589,-4.14815 -0.74666,-2.65481 -0.74666,-6.55407 z m 0.24888,-30.19852 q -7.54963,0 -13.68889,1.07852 -6.05629,1.07851 -10.37037,3.40148 -4.23111,2.32296 -6.55407,5.97333 -2.32296,3.65037 -2.32296,8.71111 0,4.31408 1.24444,7.30074 1.32741,2.90371 3.31852,4.72889 2.07407,1.82519 4.56296,2.65482 2.57185,0.74666 4.97778,0.74666 2.32296,0 4.89482,-0.49777 2.65481,-0.49778 5.1437,-1.49334 2.48889,-1.07852 4.72889,-2.73778 2.24,-1.65926 3.8163,-3.98222 z"
         style="font-style:normal;font-variant:normal;font-weight:normal;font-stretch:normal;font-size:186.66667175px;font-family:'Sitka Banner';-inkscape-font-specification:'Sitka Banner, Normal';font-variant-ligatures:normal;font-variant-caps:normal;font-variant-numeric:normal;font-feature-settings:normal;text-align:center;writing-mode:lr-tb;text-anchor:middle;fill:#c13357;fill-opacity:1"
         id="path1208"
         inkscape:connector-curvature="0" />
      <path
         d="m 1039.519,616.49187 h -12.9422 v -4.06518 q 3.2355,-0.82963 5.8074,-1.49334 2.5718,-0.74666 4.397,-1.99111 1.9082,-1.24444 2.9867,-3.40148 1.0785,-2.15704 1.3274,-5.89037 l 0.5807,-10.20444 11.7808,-2.48889 v 22.89777 h 28.3733 l -2.4059,6.63704 h -25.9674 v 56.66371 q 0,2.48889 1.6592,4.23111 1.6593,1.65926 3.9823,2.82074 2.4059,1.07852 4.9777,1.5763 2.6549,0.49777 4.646,0.49777 1.3274,0 2.9866,-0.24889 1.6593,-0.33185 3.2356,-0.6637 1.5763,-0.41481 2.8207,-0.82963 1.3274,-0.49778 1.9911,-0.82963 h 0.8297 v 4.39704 q -1.1615,0.74667 -3.2356,1.99111 -1.9911,1.16148 -4.7289,2.32296 -2.6548,1.16148 -5.9733,1.99111 -3.2356,0.82963 -6.8859,0.82963 -4.3971,0 -8.1304,-1.07852 -3.6504,-1.07851 -6.3882,-3.06962 -2.6548,-2.07408 -4.2311,-5.06075 -1.4933,-3.06963 -1.4933,-7.05185 z"
         style="font-style:normal;font-variant:normal;font-weight:normal;font-stretch:normal;font-size:186.66667175px;font-family:'Sitka Banner';-inkscape-font-specification:'Sitka Banner, Normal';font-variant-ligatures:normal;font-variant-caps:normal;font-variant-numeric:normal;font-feature-settings:normal;text-align:center;writing-mode:lr-tb;text-anchor:middle;fill:#c13357;fill-opacity:1"
         id="path1210"
         inkscape:connector-curvature="0" />
      <path
         d="m 1122.9117,691.98817 q -8.7111,0 -15.763,-2.98667 -6.9689,-2.98666 -11.9466,-8.54518 -4.8949,-5.55852 -7.5497,-13.35704 -2.6548,-7.79852 -2.6548,-17.42222 0,-8.87704 2.6548,-16.5926 2.6548,-7.79851 7.6326,-13.60592 4.9778,-5.80741 12.1126,-9.12593 7.2178,-3.31852 16.3437,-3.31852 9.7896,0 16.9245,3.56741 7.1348,3.48445 11.7807,9.37482 4.6459,5.8074 6.8859,13.52296 2.323,7.63259 2.323,15.84593 0,8.79407 -2.6548,16.59259 -2.5719,7.71555 -7.5497,13.52296 -4.9777,5.80741 -12.1955,9.20889 -7.1348,3.31852 -16.3437,3.31852 z m 1.1615,-5.47556 q 6.637,0 10.9511,-3.40148 4.3141,-3.48444 6.8029,-8.71111 2.5719,-5.30963 3.5674,-11.53185 0.9956,-6.22222 0.9956,-11.8637 0,-6.88593 -1.3274,-13.77186 -1.2444,-6.88592 -4.0652,-12.36148 -2.8207,-5.55852 -7.3837,-8.96 -4.563,-3.48444 -11.0341,-3.48444 -4.397,0 -7.7155,1.57629 -3.3185,1.5763 -5.8074,4.31408 -2.4889,2.65481 -4.1482,6.22222 -1.6592,3.48444 -2.7378,7.46667 -0.9955,3.89926 -1.4103,7.96444 -0.4148,4.06519 -0.4148,7.79852 0,4.14815 0.4148,8.62815 0.4977,4.48 1.5763,8.79407 1.1614,4.23111 2.9037,8.13037 1.8252,3.89926 4.48,6.80297 2.6548,2.9037 6.1392,4.64592 3.5674,1.74222 8.2134,1.74222 z"
         style="font-style:normal;font-variant:normal;font-weight:normal;font-stretch:normal;font-size:186.66667175px;font-family:'Sitka Banner';-inkscape-font-specification:'Sitka Banner, Normal';font-variant-ligatures:normal;font-variant-caps:normal;font-variant-numeric:normal;font-feature-settings:normal;text-align:center;writing-mode:lr-tb;text-anchor:middle;fill:#c13357;fill-opacity:1"
         id="path1212"
         inkscape:connector-curvature="0" />
      <path
         d="m 1169.3146,686.01484 9.2088,-2.07408 q 1.6593,-0.41481 2.6549,-1.65926 1.0785,-1.24444 1.0785,-3.06963 v -54.50666 q 0,-2.15704 -1.1615,-3.73334 -1.1615,-1.57629 -3.9822,-2.57185 l -7.6326,-2.73778 v -2.24 l 25.8015,-5.72444 v 18.16889 0 q 1.9911,-3.23556 4.397,-6.55408 2.4059,-3.40148 5.4756,-6.05629 3.0696,-2.73778 6.72,-4.48 3.7333,-1.74223 8.2963,-1.74223 2.3229,0 3.9822,0.24889 1.6592,0.16593 2.9866,0.49778 1.3274,0.33185 2.4889,0.82963 1.1615,0.41481 2.5719,0.91259 v 19.41334 h -4.2311 l -2.6548,-6.96889 q -0.3319,-0.82963 -1.4104,-1.41037 -1.0785,-0.66371 -2.4889,-0.99556 -1.3274,-0.41481 -2.9037,-0.58074 -1.4933,-0.24889 -2.7378,-0.24889 -2.9867,0 -5.6415,0.74667 -2.6548,0.74667 -5.0607,2.15704 -2.4059,1.41037 -4.6459,3.5674 -2.1571,2.15704 -4.2311,4.97778 v 49.03111 q 0,1.90815 0.9955,3.1526 1.0785,1.24444 2.7378,1.57629 l 10.7022,2.07408 v 3.73333 h -41.3155 z"
         style="font-style:normal;font-variant:normal;font-weight:normal;font-stretch:normal;font-size:186.66667175px;font-family:'Sitka Banner';-inkscape-font-specification:'Sitka Banner, Normal';font-variant-ligatures:normal;font-variant-caps:normal;font-variant-numeric:normal;font-feature-settings:normal;text-align:center;writing-mode:lr-tb;text-anchor:middle;fill:#c13357;fill-opacity:1"
         id="path1214"
         inkscape:connector-curvature="0" />
    </g>
    <g
       id="g1147"
       transform="matrix(0.74943711,0,0,0.74943711,39.209794,18.251026)">
      <g
         aria-label="FunCobal"
         transform="matrix(0.97410844,0,0,0.97410844,-97.867366,132.02166)"
         style="font-style:normal;font-variant:normal;font-weight:normal;font-stretch:normal;font-size:37.33333206px;line-height:1.25;font-family:sans-serif;-inkscape-font-specification:'sans-serif, Normal';font-variant-ligatures:normal;font-variant-caps:normal;font-variant-numeric:normal;font-feature-settings:normal;text-align:start;letter-spacing:0px;word-spacing:0px;writing-mode:lr-tb;text-anchor:start;fill:#c13357;fill-opacity:1;stroke:none"
         id="flowRoot1523">
        <path
           d="m 101.91016,24.951823 h 15.64062 v 3.098958 h -11.95833 v 8.020833 h 10.79166 v 3.098958 h -10.79166 v 12.997395 h -3.68229 z"
           id="path964"
           inkscape:connector-curvature="0"
           style="fill:#c13357;fill-opacity:1" />
        <path
           d="M 120.88672,44.110676 V 31.751302 h 3.35417 v 12.23177 q 0,2.898437 1.1302,4.356771 1.13021,1.440104 3.39063,1.440104 2.71614,0 4.28385,-1.731771 1.58594,-1.731771 1.58594,-4.721354 v -11.57552 h 3.35417 v 20.416665 h -3.35417 v -3.135416 q -1.22135,1.859375 -2.84375,2.770833 -1.60417,0.893229 -3.73698,0.893229 -3.51823,0 -5.34114,-2.1875 -1.82292,-2.1875 -1.82292,-6.398437 z m 8.4401,-12.851562 z"
           id="path966"
           inkscape:connector-curvature="0"
           style="fill:#c13357;fill-opacity:1" />
        <path
           d="m 161.90234,39.845051 v 12.322916 h -3.35417 V 39.954426 q 0,-2.898437 -1.1302,-4.338541 -1.13021,-1.440104 -3.39063,-1.440104 -2.71614,0 -4.28385,1.73177 -1.56771,1.731771 -1.56771,4.721354 v 11.539062 h -3.3724 V 31.751302 h 3.3724 v 3.171874 q 1.20312,-1.841145 2.82552,-2.752604 1.64062,-0.911458 3.77344,-0.911458 3.51823,0 5.32291,2.1875 1.80469,2.169271 1.80469,6.398437 z"
           id="path968"
           inkscape:connector-curvature="0"
           style="fill:#c13357;fill-opacity:1" />
        <path
           d="m 189.15494,27.048177 v 3.882812 q -1.85937,-1.731771 -3.97396,-2.588542 -2.09635,-0.85677 -4.46614,-0.85677 -4.66667,0 -7.14583,2.861979 -2.47917,2.84375 -2.47917,8.239583 0,5.377604 2.47917,8.239583 2.47916,2.84375 7.14583,2.84375 2.36979,0 4.46614,-0.856771 2.11459,-0.856771 3.97396,-2.588542 v 3.846354 q -1.93229,1.3125 -4.10156,1.96875 -2.15104,0.65625 -4.55729,0.65625 -6.17969,0 -9.73438,-3.773437 -3.55468,-3.791667 -3.55468,-10.335937 0,-6.5625 3.55468,-10.335937 3.55469,-3.791667 9.73438,-3.791667 2.44271,0 4.59375,0.65625 2.16927,0.638021 4.0651,1.932292 z"
           id="path970"
           inkscape:connector-curvature="0"
           style="fill:#c13357;fill-opacity:1" />
        <path
           d="m 202.64453,34.102864 q -2.69792,0 -4.26562,2.114583 -1.56771,2.096354 -1.56771,5.760417 0,3.664062 1.54948,5.778645 1.56771,2.096354 4.28385,2.096354 2.67969,0 4.2474,-2.114583 1.5677,-2.114583 1.5677,-5.760416 0,-3.627604 -1.5677,-5.742188 -1.56771,-2.132812 -4.2474,-2.132812 z m 0,-2.84375 q 4.375,0 6.8724,2.84375 2.49739,2.84375 2.49739,7.875 0,5.01302 -2.49739,7.874999 -2.4974,2.84375 -6.8724,2.84375 -4.39323,0 -6.89062,-2.84375 -2.47917,-2.861979 -2.47917,-7.874999 0,-5.03125 2.47917,-7.875 2.49739,-2.84375 6.89062,-2.84375 z"
           id="path972"
           inkscape:connector-curvature="0"
           style="fill:#c13357;fill-opacity:1" />
        <path
           d="m 232.21224,41.977864 q 0,-3.700521 -1.53125,-5.796875 -1.51302,-2.114583 -4.17448,-2.114583 -2.66146,0 -4.19271,2.114583 -1.51302,2.096354 -1.51302,5.796875 0,3.70052 1.51302,5.815104 1.53125,2.096354 4.19271,2.096354 2.66146,0 4.17448,-2.096354 1.53125,-2.114584 1.53125,-5.815104 z M 220.80078,34.85026 q 1.05729,-1.822917 2.66146,-2.697917 1.62239,-0.893229 3.86458,-0.893229 3.71875,0 6.03385,2.953125 2.33334,2.953125 2.33334,7.765625 0,4.8125 -2.33334,7.765624 -2.3151,2.953125 -6.03385,2.953125 -2.24219,0 -3.86458,-0.875 -1.60417,-0.893229 -2.66146,-2.716145 v 3.062499 h -3.3724 V 23.803385 h 3.3724 z"
           id="path974"
           inkscape:connector-curvature="0"
           style="fill:#c13357;fill-opacity:1" />
        <path
           d="m 250.53255,41.904947 q -4.06511,0 -5.63282,0.929687 -1.5677,0.929688 -1.5677,3.171875 0,1.786459 1.16666,2.84375 1.1849,1.039063 3.20834,1.039063 2.78906,0 4.46614,-1.96875 1.69531,-1.986979 1.69531,-5.268229 v -0.747396 z m 6.6901,-1.385417 v 11.648437 h -3.35417 v -3.098958 q -1.14843,1.859375 -2.86198,2.752604 -1.71354,0.875 -4.1927,0.875 -3.13542,0 -4.99479,-1.75 -1.84115,-1.768229 -1.84115,-4.721354 0,-3.445312 2.29687,-5.195312 2.31511,-1.75 6.89063,-1.75 h 4.70312 v -0.328125 q 0,-2.315104 -1.53125,-3.572916 -1.51302,-1.276042 -4.26562,-1.276042 -1.75,0 -3.40885,0.419271 -1.65886,0.419271 -3.19011,1.257812 v -3.098958 q 1.84115,-0.710937 3.57292,-1.057292 1.73177,-0.364583 3.37239,-0.364583 4.42969,0 6.61719,2.296875 2.1875,2.296875 2.1875,6.963541 z"
           id="path976"
           inkscape:connector-curvature="0"
           style="fill:#c13357;fill-opacity:1" />
        <path
           d="m 264.14973,23.803385 h 3.35417 v 28.364582 h -3.35417 z"
           id="path978"
           inkscape:connector-curvature="0"
           style="fill:#c13357;fill-opacity:1" />
      </g>
      <path
         inkscape:connector-curvature="0"
         id="path936"
         d="m 184.38757,158.58259 v 9.89077 h 9.89075 v 3.0187 h -9.89075 v 9.89074 h -2.9832 v -9.89074 h -9.89076 v -3.0187 h 9.89076 v -9.89077 z"
         style="font-style:normal;font-variant:normal;font-weight:normal;font-stretch:normal;font-size:37.33333206px;line-height:1.25;font-family:sans-serif;-inkscape-font-specification:'sans-serif, Normal';font-variant-ligatures:normal;font-variant-caps:normal;font-variant-numeric:normal;font-feature-settings:normal;text-align:start;letter-spacing:0px;word-spacing:0px;writing-mode:lr-tb;text-anchor:start;fill:#c13357;fill-opacity:1;stroke:none;stroke-width:0.97410858" />
      <g
         style="fill:#c13357;fill-opacity:1"
         id="g1419"
         transform="matrix(1.1352319,0,0,1.1352319,149.20331,-144.42481)">
        <path
           inkscape:connector-curvature="0"
           id="path938"
           d="m 65.040087,266.51213 v 3.33172 q -1.595478,-1.48598 -3.409936,-2.22115 -1.798815,-0.73517 -3.832269,-0.73517 -4.00432,0 -6.131621,2.45578 -2.127301,2.44014 -2.127301,7.07014 0,4.61436 2.127301,7.07014 2.127301,2.44013 6.131621,2.44013 2.033454,0 3.832269,-0.73517 1.814458,-0.73517 3.409936,-2.22115 v 3.30044 q -1.65804,1.12622 -3.519425,1.68933 -1.845752,0.56311 -3.910482,0.56311 -5.302598,0 -8.35277,-3.23787 -3.050173,-3.25352 -3.050173,-8.86896 0,-5.63109 3.050173,-8.86896 3.050172,-3.25351 8.35277,-3.25351 2.096016,0 3.941758,0.56311 1.861386,0.54746 3.488149,1.65804 z"
           style="font-style:normal;font-variant:normal;font-weight:normal;font-stretch:normal;font-size:37.33333206px;line-height:1.25;font-family:sans-serif;-inkscape-font-specification:'sans-serif, Normal';font-variant-ligatures:normal;font-variant-caps:normal;font-variant-numeric:normal;font-feature-settings:normal;text-align:start;letter-spacing:0px;word-spacing:0px;writing-mode:lr-tb;text-anchor:start;fill:#c13357;fill-opacity:1;stroke:none;stroke-width:0.8580699" />
        <path
           inkscape:connector-curvature="0"
           id="path940"
           d="m 84.389109,277.49274 v 10.57392 h -2.878104 v -10.48007 q 0,-2.48706 -0.969799,-3.72277 -0.9698,-1.23571 -2.909398,-1.23571 -2.330638,0 -3.675843,1.48598 -1.345205,1.48598 -1.345205,4.05125 v 9.90132 h -2.893746 v -24.33879 h 2.893746 v 9.54156 q 1.03237,-1.57983 2.424494,-2.36193 1.407775,-0.78209 3.237875,-0.78209 3.018888,0 4.567438,1.87702 1.548542,1.86139 1.548542,5.49031 z"
           style="font-style:normal;font-variant:normal;font-weight:normal;font-stretch:normal;font-size:37.33333206px;line-height:1.25;font-family:sans-serif;-inkscape-font-specification:'sans-serif, Normal';font-variant-ligatures:normal;font-variant-caps:normal;font-variant-numeric:normal;font-feature-settings:normal;text-align:start;letter-spacing:0px;word-spacing:0px;writing-mode:lr-tb;text-anchor:start;fill:#c13357;fill-opacity:1;stroke:none;stroke-width:0.8580699" />
        <path
           inkscape:connector-curvature="0"
           id="path942"
           d="m 105.14591,278.58767 v 1.40777 H 91.912871 q 0.187703,2.97196 1.783173,4.53615 1.61112,1.54855 4.47359,1.54855 1.65804,0 3.206586,-0.40669 1.56419,-0.40669 3.0971,-1.22007 v 2.72169 q -1.54855,0.65696 -3.17531,1.00109 -1.626754,0.34412 -3.300445,0.34412 -4.192023,0 -6.647802,-2.44014 -2.440136,-2.44013 -2.440136,-6.60088 0,-4.30152 2.315004,-6.81987 2.330638,-2.53398 6.272396,-2.53398 3.535073,0 5.584153,2.28371 2.06473,2.26808 2.06473,6.17855 z m -2.8781,-0.84466 q -0.0313,-2.36193 -1.32956,-3.7697 -1.282636,-1.40777 -3.409937,-1.40777 -2.408851,0 -3.863546,1.36085 -1.43906,1.36084 -1.658048,3.83226 z"
           style="font-style:normal;font-variant:normal;font-weight:normal;font-stretch:normal;font-size:37.33333206px;line-height:1.25;font-family:sans-serif;-inkscape-font-specification:'sans-serif, Normal';font-variant-ligatures:normal;font-variant-caps:normal;font-variant-numeric:normal;font-feature-settings:normal;text-align:start;letter-spacing:0px;word-spacing:0px;writing-mode:lr-tb;text-anchor:start;fill:#c13357;fill-opacity:1;stroke:none;stroke-width:0.8580699" />
        <path
           inkscape:connector-curvature="0"
           id="path944"
           d="m 121.03809,271.06392 v 2.72169 q -1.22007,-0.62568 -2.53399,-0.93851 -1.31392,-0.31284 -2.72169,-0.31284 -2.14294,0 -3.22223,0.65696 -1.06365,0.65696 -1.06365,1.97088 0,1.00108 0.76646,1.57983 0.76644,0.56311 3.08145,1.07929 l 0.98544,0.21899 q 3.0658,0.65696 4.34845,1.86138 1.29827,1.18879 1.29827,3.33173 0,2.44013 -1.93959,3.86355 -1.92396,1.42341 -5.30261,1.42341 -1.40777,0 -2.94068,-0.28156 -1.51726,-0.26591 -3.20659,-0.81337 v -2.97197 q 1.59548,0.82903 3.14402,1.25136 1.54855,0.40669 3.06582,0.40669 2.03345,0 3.12838,-0.68825 1.09493,-0.70388 1.09493,-1.97088 0,-1.17314 -0.79773,-1.79882 -0.7821,-0.62567 -3.45687,-1.20442 l -1.00107,-0.23463 q -2.67477,-0.56311 -3.86356,-1.72061 -1.18878,-1.17314 -1.18878,-3.20659 0,-2.47142 1.75189,-3.81662 1.7519,-1.3452 4.97413,-1.3452 1.59547,0 3.00325,0.23462 1.40776,0.23463 2.59655,0.70389 z"
           style="font-style:normal;font-variant:normal;font-weight:normal;font-stretch:normal;font-size:37.33333206px;line-height:1.25;font-family:sans-serif;-inkscape-font-specification:'sans-serif, Normal';font-variant-ligatures:normal;font-variant-caps:normal;font-variant-numeric:normal;font-feature-settings:normal;text-align:start;letter-spacing:0px;word-spacing:0px;writing-mode:lr-tb;text-anchor:start;fill:#c13357;fill-opacity:1;stroke:none;stroke-width:0.8580699" />
      </g>
    </g>
    <g
       aria-label="the collaboration of"
       style="font-style:normal;font-variant:normal;font-weight:normal;font-stretch:normal;font-size:22.57777786px;line-height:1.25;font-family:'Sitka Banner';-inkscape-font-specification:'Sitka Banner, Normal';font-variant-ligatures:normal;font-variant-caps:normal;font-variant-numeric:normal;font-feature-settings:normal;text-align:start;letter-spacing:0px;word-spacing:0px;writing-mode:lr-tb;text-anchor:start;fill:#c6657d;fill-opacity:1;stroke:none;stroke-width:0.26458332"
       id="text868"
       transform="matrix(0.936038,0,0,0.936038,4.5607704,-11.686499)">
      <path
         d="m 74.342981,134.25753 h -1.565393 v -0.49169 q 0.391348,-0.10035 0.70242,-0.18062 0.311071,-0.0903 0.531832,-0.24083 0.230795,-0.15052 0.361244,-0.41142 0.13045,-0.2609 0.160553,-0.71245 l 0.07024,-1.23426 1.424909,-0.30103 v 2.76954 h 3.431822 l -0.291002,0.80276 h -3.14082 v 6.85361 q 0,0.30104 0.200691,0.51177 0.200692,0.20069 0.48166,0.34117 0.291002,0.13045 0.602074,0.19066 0.321106,0.0602 0.561935,0.0602 0.160554,0 0.361245,-0.0301 0.200691,-0.0401 0.391348,-0.0803 0.190657,-0.0502 0.341175,-0.10035 0.160553,-0.0602 0.24083,-0.10035 h 0.100346 v 0.53184 q -0.140484,0.0903 -0.391348,0.24083 -0.24083,0.14048 -0.571971,0.28096 -0.321106,0.14049 -0.722489,0.24083 -0.391348,0.10035 -0.832869,0.10035 -0.531832,0 -0.983388,-0.13045 -0.441521,-0.13045 -0.772661,-0.37128 -0.321106,-0.25086 -0.511763,-0.61211 -0.180622,-0.37128 -0.180622,-0.85294 z"
         style="font-style:normal;font-variant:normal;font-weight:normal;font-stretch:normal;font-size:22.57777786px;font-family:'Sitka Banner';-inkscape-font-specification:'Sitka Banner, Normal';font-variant-ligatures:normal;font-variant-caps:normal;font-variant-numeric:normal;font-feature-settings:normal;text-align:start;writing-mode:lr-tb;text-anchor:start;fill:#c6657d;fill-opacity:1;stroke-width:0.26458332"
         id="path870"
         inkscape:connector-curvature="0" />
      <path
         d="m 79.54269,142.6665 1.083733,-0.25086 q 0.210726,-0.0502 0.331141,-0.19066 0.120415,-0.15052 0.120415,-0.37128 v -11.78058 q 0,-0.2609 -0.140484,-0.44152 -0.130449,-0.18062 -0.471625,-0.30104 l -0.92318,-0.33114 v -0.27093 l 3.221096,-0.77266 v 6.34184 0.5218 q 0.421452,-0.56194 0.8128,-0.89308 0.401383,-0.34117 0.782697,-0.52179 0.381313,-0.18063 0.752592,-0.2308 0.371279,-0.0602 0.752593,-0.0602 0.642212,0 1.214182,0.20069 0.571971,0.19066 0.993423,0.61211 0.431486,0.41142 0.672316,1.0737 0.250864,0.65225 0.250864,1.56539 v 5.23805 q 0,0.25086 0.130449,0.41142 0.13045,0.15051 0.321107,0.20069 l 0.963318,0.25086 v 0.45156 h -4.646005 v -0.45156 l 1.113837,-0.25086 q 0.180622,-0.0401 0.301037,-0.20069 0.13045,-0.16056 0.13045,-0.41142 v -4.60587 q 0,-0.67231 -0.08028,-1.21418 -0.08028,-0.5519 -0.321106,-0.93322 -0.230795,-0.39134 -0.662282,-0.60207 -0.421452,-0.21073 -1.113837,-0.21073 -0.301037,0 -0.632177,0.0602 -0.321107,0.0602 -0.632178,0.19066 -0.311072,0.12041 -0.602074,0.3211 -0.280968,0.2007 -0.501729,0.48166 v 6.55258 q 0,0.23079 0.120415,0.38131 0.130449,0.14048 0.331141,0.19066 l 0.963318,0.25086 v 0.45156 h -4.63597 z"
         style="font-style:normal;font-variant:normal;font-weight:normal;font-stretch:normal;font-size:22.57777786px;font-family:'Sitka Banner';-inkscape-font-specification:'Sitka Banner, Normal';font-variant-ligatures:normal;font-variant-caps:normal;font-variant-numeric:normal;font-feature-settings:normal;text-align:start;writing-mode:lr-tb;text-anchor:start;fill:#c6657d;fill-opacity:1;stroke-width:0.26458332"
         id="path872"
         inkscape:connector-curvature="0" />
      <path
         d="m 99.36492,141.02083 v 0.72249 q -0.301037,0.291 -0.70242,0.58201 -0.401383,0.291 -0.893076,0.52179 -0.48166,0.2308 -1.033561,0.37128 -0.551901,0.15052 -1.153975,0.15052 -0.983388,0 -1.796188,-0.33114 -0.802765,-0.33114 -1.38477,-0.97335 -0.582005,-0.65225 -0.903111,-1.5955 -0.321107,-0.94325 -0.321107,-2.1775 0,-1.02353 0.301037,-1.95674 0.311072,-0.94325 0.893077,-1.6557 0.582005,-0.71246 1.414874,-1.13391 0.842904,-0.43149 1.896533,-0.43149 0.893077,0 1.585462,0.33114 0.692385,0.33114 1.16401,0.86298 0.471625,0.53183 0.712454,1.22421 0.24083,0.68235 0.24083,1.38477 0,0.0903 -0.01004,0.19066 0,0.10035 -0.01003,0.20069 0,0.10035 -0.02007,0.19066 -0.01004,0.0903 -0.02007,0.17059 h -6.381986 q 0.01004,2.18753 0.822835,3.37161 0.822834,1.17405 2.468504,1.17405 0.561935,0 1.03356,-0.12042 0.471625,-0.13045 0.842904,-0.31107 0.381313,-0.18062 0.662281,-0.38131 0.291003,-0.21073 0.491694,-0.38132 z m -1.766084,-4.01382 q 0,-0.63218 -0.11038,-1.21419 -0.100346,-0.59204 -0.341176,-1.04359 -0.240829,-0.45156 -0.632177,-0.71246 -0.381314,-0.27093 -0.933215,-0.27093 -0.551902,0 -0.993423,0.23079 -0.431486,0.2308 -0.762627,0.65225 -0.321106,0.42145 -0.531832,1.02353 -0.210726,0.60207 -0.301037,1.3346 z"
         style="font-style:normal;font-variant:normal;font-weight:normal;font-stretch:normal;font-size:22.57777786px;font-family:'Sitka Banner';-inkscape-font-specification:'Sitka Banner, Normal';font-variant-ligatures:normal;font-variant-caps:normal;font-variant-numeric:normal;font-feature-settings:normal;text-align:start;writing-mode:lr-tb;text-anchor:start;fill:#c6657d;fill-opacity:1;stroke-width:0.26458332"
         id="path874"
         inkscape:connector-curvature="0" />
      <path
         d="m 113.49371,141.00076 v 0.71246 q -0.291,0.291 -0.68235,0.59204 -0.39135,0.291 -0.86297,0.53183 -0.46159,0.23079 -1.00346,0.38131 -0.54187,0.15052 -1.1339,0.15052 -0.97336,0 -1.75605,-0.39135 -0.77267,-0.39134 -1.32457,-1.05363 -0.54186,-0.66228 -0.8429,-1.52525 -0.291,-0.87301 -0.291,-1.83633 0,-0.71245 0.15051,-1.38477 0.15052,-0.68235 0.45156,-1.28442 0.30104,-0.61211 0.74256,-1.11384 0.44152,-0.50173 1.01349,-0.86297 0.582,-0.37128 1.29446,-0.57197 0.71245,-0.21073 1.55536,-0.21073 0.582,0 0.99342,0.0903 0.41142,0.0903 0.69238,0.21073 0.29101,0.12041 0.48166,0.25086 0.2007,0.12042 0.37128,0.20069 l -0.31107,1.58547 h -0.23079 q -0.36125,-0.25087 -0.72249,-0.50173 -0.35121,-0.25087 -0.73253,-0.44152 -0.37128,-0.20069 -0.79273,-0.32111 -0.42145,-0.13045 -0.91314,-0.13045 -0.19066,0 -0.38132,0.0502 -0.19065,0.0502 -0.37128,0.14049 -0.18062,0.0903 -0.33114,0.21072 -0.15051,0.12042 -0.27093,0.25087 -0.15052,0.17059 -0.31107,0.46159 -0.16055,0.291 -0.30104,0.69238 -0.13045,0.40139 -0.22076,0.90311 -0.0903,0.4917 -0.0903,1.0737 0,1.0135 0.21073,1.81626 0.22076,0.79273 0.65224,1.35467 0.43149,0.5519 1.0737,0.85294 0.64221,0.291 1.49515,0.291 0.42145,0 0.80277,-0.12042 0.39135,-0.13045 0.73252,-0.31107 0.34118,-0.18062 0.60208,-0.38131 0.27093,-0.20069 0.45155,-0.36125 z"
         style="font-style:normal;font-variant:normal;font-weight:normal;font-stretch:normal;font-size:22.57777786px;font-family:'Sitka Banner';-inkscape-font-specification:'Sitka Banner, Normal';font-variant-ligatures:normal;font-variant-caps:normal;font-variant-numeric:normal;font-feature-settings:normal;text-align:start;writing-mode:lr-tb;text-anchor:start;fill:#c6657d;fill-opacity:1;stroke-width:0.26458332"
         id="path876"
         inkscape:connector-curvature="0" />
      <path
         d="m 118.73716,143.38899 q -1.05363,0 -1.90656,-0.36124 -0.84291,-0.36125 -1.44498,-1.03356 -0.59204,-0.67232 -0.91315,-1.61557 -0.3211,-0.94325 -0.3211,-2.10726 0,-1.0737 0.3211,-2.00691 0.32111,-0.94325 0.92318,-1.64567 0.60208,-0.70242 1.46505,-1.1038 0.87301,-0.40139 1.97681,-0.40139 1.18408,0 2.04705,0.43149 0.86297,0.42145 1.42491,1.13391 0.56194,0.70242 0.83287,1.63563 0.28097,0.92318 0.28097,1.9166 0,1.06367 -0.32111,2.00692 -0.31107,0.93321 -0.91315,1.63563 -0.60207,0.70242 -1.47508,1.11384 -0.86297,0.40138 -1.97681,0.40138 z m 0.14049,-0.66228 q 0.80276,0 1.32456,-0.41142 0.5218,-0.42145 0.82283,-1.05363 0.31108,-0.64221 0.43149,-1.3948 0.12042,-0.7526 0.12042,-1.43495 0,-0.83287 -0.16056,-1.66573 -0.15052,-0.83287 -0.49169,-1.49515 -0.34118,-0.67232 -0.89308,-1.08374 -0.5519,-0.42145 -1.3346,-0.42145 -0.53183,0 -0.93321,0.19066 -0.40138,0.19065 -0.70242,0.52179 -0.30104,0.32111 -0.50173,0.7526 -0.20069,0.42145 -0.33114,0.90311 -0.12041,0.47162 -0.17059,0.96332 -0.0502,0.49169 -0.0502,0.94325 0,0.50172 0.0502,1.04359 0.0602,0.54187 0.19066,1.06367 0.14048,0.51176 0.35121,0.98338 0.22076,0.47163 0.54187,0.82284 0.3211,0.35121 0.74255,0.56193 0.43149,0.21073 0.99343,0.21073 z"
         style="font-style:normal;font-variant:normal;font-weight:normal;font-stretch:normal;font-size:22.57777786px;font-family:'Sitka Banner';-inkscape-font-specification:'Sitka Banner, Normal';font-variant-ligatures:normal;font-variant-caps:normal;font-variant-numeric:normal;font-feature-settings:normal;text-align:start;writing-mode:lr-tb;text-anchor:start;fill:#c6657d;fill-opacity:1;stroke-width:0.26458332"
         id="path878"
         inkscape:connector-curvature="0" />
      <path
         d="m 124.18915,142.6665 1.08373,-0.25086 q 0.20069,-0.0502 0.32111,-0.20069 0.13045,-0.15052 0.13045,-0.37128 v -11.77055 q 0,-0.2609 -0.14049,-0.44152 -0.13044,-0.18062 -0.47162,-0.30104 l -0.92318,-0.33114 v -0.27093 l 3.2211,-0.77266 v 13.88784 q 0,0.23079 0.12041,0.38131 0.13045,0.14048 0.33114,0.19066 l 0.96332,0.25086 v 0.45156 h -4.63597 z"
         style="font-style:normal;font-variant:normal;font-weight:normal;font-stretch:normal;font-size:22.57777786px;font-family:'Sitka Banner';-inkscape-font-specification:'Sitka Banner, Normal';font-variant-ligatures:normal;font-variant-caps:normal;font-variant-numeric:normal;font-feature-settings:normal;text-align:start;writing-mode:lr-tb;text-anchor:start;fill:#c6657d;fill-opacity:1;stroke-width:0.26458332"
         id="path880"
         inkscape:connector-curvature="0" />
      <path
         d="m 129.39262,142.6665 1.08374,-0.25086 q 0.20069,-0.0502 0.3211,-0.20069 0.13045,-0.15052 0.13045,-0.37128 v -11.77055 q 0,-0.2609 -0.14048,-0.44152 -0.13045,-0.18062 -0.47163,-0.30104 l -0.92318,-0.33114 v -0.27093 l 3.2211,-0.77266 v 13.88784 q 0,0.23079 0.12041,0.38131 0.13045,0.14048 0.33114,0.19066 l 0.96332,0.25086 v 0.45156 h -4.63597 z"
         style="font-style:normal;font-variant:normal;font-weight:normal;font-stretch:normal;font-size:22.57777786px;font-family:'Sitka Banner';-inkscape-font-specification:'Sitka Banner, Normal';font-variant-ligatures:normal;font-variant-caps:normal;font-variant-numeric:normal;font-feature-settings:normal;text-align:start;writing-mode:lr-tb;text-anchor:start;fill:#c6657d;fill-opacity:1;stroke-width:0.26458332"
         id="path882"
         inkscape:connector-curvature="0" />
      <path
         d="m 140.68708,141.68311 q -0.35121,0.53184 -0.77266,0.85294 -0.41142,0.32111 -0.84291,0.50173 -0.42145,0.17059 -0.8429,0.22076 -0.41142,0.0602 -0.76263,0.0602 -0.57197,0 -1.04359,-0.21073 -0.46159,-0.21072 -0.80277,-0.56193 -0.33114,-0.35121 -0.5218,-0.82284 -0.18062,-0.47162 -0.18062,-0.99342 0,-0.61211 0.21073,-1.09377 0.22076,-0.48166 0.582,-0.8429 0.37128,-0.37128 0.84291,-0.62214 0.47162,-0.2609 0.97335,-0.42146 0.50173,-0.16055 1.00345,-0.23079 0.50173,-0.0803 0.93322,-0.0803 0.0903,0 0.2609,0.0201 0.17059,0.01 0.35121,0.0301 0.19066,0.01 0.36124,0.0201 0.18063,0.01 0.28097,0.01 l 0.01,-1.80622 q 0,-0.48166 -0.0903,-0.80277 -0.0803,-0.32111 -0.26089,-0.50173 -0.17059,-0.19065 -0.44153,-0.2609 -0.27093,-0.0803 -0.65224,-0.0803 -0.4917,0 -0.96332,0.17058 -0.46159,0.16056 -0.87301,0.40139 -0.41142,0.24083 -0.76263,0.51176 -0.35121,0.2609 -0.60207,0.45156 h -0.22076 l -0.31107,-1.58547 q 0.291,-0.16055 0.64221,-0.3211 0.36125,-0.17059 0.77266,-0.291 0.41142,-0.13045 0.87301,-0.21073 0.47162,-0.0803 0.98339,-0.0803 0.61211,0 1.25432,0.17059 0.64221,0.16055 1.16401,0.53183 0.5218,0.37128 0.8429,0.98339 0.33114,0.61211 0.32111,1.49515 l -0.0602,5.25811 q 0,0.15052 0.0502,0.27094 0.0502,0.11038 0.15052,0.20069 0.11038,0.0803 0.2609,0.13045 0.16055,0.0401 0.37128,0.0401 0.0502,0 0.16055,-0.0201 0.11038,-0.0201 0.24083,-0.0401 0.14049,-0.0301 0.27094,-0.0602 0.14048,-0.0401 0.24083,-0.0702 h 0.10034 v 0.48166 q -0.14048,0.11038 -0.37128,0.2609 -0.22076,0.14048 -0.49169,0.27093 -0.2609,0.12042 -0.5519,0.21073 -0.28097,0.0903 -0.54187,0.0903 -0.38131,0 -0.67232,-0.0803 -0.291,-0.0803 -0.49169,-0.2609 -0.19066,-0.19065 -0.291,-0.50173 -0.0903,-0.3211 -0.0903,-0.79273 z m 0.0301,-3.65258 q -0.91314,0 -1.6557,0.13045 -0.73253,0.13045 -1.25432,0.41142 -0.51177,0.28097 -0.79273,0.72249 -0.28097,0.44152 -0.28097,1.05363 0,0.52179 0.15052,0.88304 0.16055,0.35121 0.40138,0.57197 0.25086,0.22076 0.5519,0.32111 0.31107,0.0903 0.60207,0.0903 0.28097,0 0.59204,-0.0602 0.32111,-0.0602 0.62215,-0.18062 0.30103,-0.13045 0.57197,-0.33114 0.27093,-0.2007 0.46159,-0.48166 z"
         style="font-style:normal;font-variant:normal;font-weight:normal;font-stretch:normal;font-size:22.57777786px;font-family:'Sitka Banner';-inkscape-font-specification:'Sitka Banner, Normal';font-variant-ligatures:normal;font-variant-caps:normal;font-variant-numeric:normal;font-feature-settings:normal;text-align:start;writing-mode:lr-tb;text-anchor:start;fill:#c6657d;fill-opacity:1;stroke-width:0.26458332"
         id="path884"
         inkscape:connector-curvature="0" />
      <path
         d="m 145.54784,130.07312 q 0,-0.2609 -0.14048,-0.44152 -0.14049,-0.18062 -0.48166,-0.30104 l -0.92318,-0.33114 v -0.27093 l 3.23113,-0.77266 v 6.34184 0.50173 q 0.40138,-0.582 0.8429,-0.92318 0.44152,-0.34118 0.85294,-0.50173 0.42145,-0.17059 0.7827,-0.21072 0.37128,-0.0502 0.62214,-0.0502 0.90311,0 1.60553,0.35121 0.71246,0.35121 1.20415,0.98339 0.49169,0.63218 0.75259,1.51522 0.2609,0.87301 0.2609,1.9166 0,1.15398 -0.32111,2.15743 -0.3211,1.00346 -0.94325,1.75605 -0.6121,0.74256 -1.50518,1.17405 -0.88304,0.42145 -2.01695,0.42145 -0.42145,0 -0.88304,-0.0401 -0.46159,-0.0301 -0.94325,-0.13045 -0.48166,-0.10034 -0.98339,-0.27093 -0.50173,-0.18062 -1.01349,-0.46159 z m 1.68581,11.75048 q 0.13045,0.14048 0.37128,0.30104 0.24083,0.15051 0.5218,0.291 0.291,0.13045 0.582,0.22076 0.291,0.0803 0.53183,0.0803 0.8128,0 1.40484,-0.34117 0.60208,-0.35121 0.98339,-0.92318 0.39135,-0.58201 0.57197,-1.32456 0.19066,-0.74256 0.19066,-1.53529 0,-0.94325 -0.18063,-1.73598 -0.17058,-0.80277 -0.54186,-1.38477 -0.36125,-0.58201 -0.93322,-0.90311 -0.56193,-0.33115 -1.34463,-0.33115 -0.23079,0 -0.5218,0.0502 -0.28096,0.0502 -0.582,0.17059 -0.291,0.12041 -0.57197,0.33114 -0.27094,0.21072 -0.48166,0.52179 z"
         style="font-style:normal;font-variant:normal;font-weight:normal;font-stretch:normal;font-size:22.57777786px;font-family:'Sitka Banner';-inkscape-font-specification:'Sitka Banner, Normal';font-variant-ligatures:normal;font-variant-caps:normal;font-variant-numeric:normal;font-feature-settings:normal;text-align:start;writing-mode:lr-tb;text-anchor:start;fill:#c6657d;fill-opacity:1;stroke-width:0.26458332"
         id="path886"
         inkscape:connector-curvature="0" />
      <path
         d="m 159.79168,143.38899 q -1.05363,0 -1.90657,-0.36124 -0.8429,-0.36125 -1.44498,-1.03356 -0.59204,-0.67232 -0.91314,-1.61557 -0.32111,-0.94325 -0.32111,-2.10726 0,-1.0737 0.32111,-2.00691 0.3211,-0.94325 0.92318,-1.64567 0.60207,-0.70242 1.46504,-1.1038 0.87301,-0.40139 1.97681,-0.40139 1.18408,0 2.04706,0.43149 0.86297,0.42145 1.42491,1.13391 0.56193,0.70242 0.83286,1.63563 0.28097,0.92318 0.28097,1.9166 0,1.06367 -0.3211,2.00692 -0.31108,0.93321 -0.91315,1.63563 -0.60207,0.70242 -1.47508,1.11384 -0.86297,0.40138 -1.97681,0.40138 z m 0.14048,-0.66228 q 0.80277,0 1.32457,-0.41142 0.52179,-0.42145 0.82283,-1.05363 0.31107,-0.64221 0.43149,-1.3948 0.12041,-0.7526 0.12041,-1.43495 0,-0.83287 -0.16055,-1.66573 -0.15052,-0.83287 -0.4917,-1.49515 -0.34117,-0.67232 -0.89307,-1.08374 -0.5519,-0.42145 -1.3346,-0.42145 -0.53183,0 -0.93321,0.19066 -0.40139,0.19065 -0.70242,0.52179 -0.30104,0.32111 -0.50173,0.7526 -0.20069,0.42145 -0.33114,0.90311 -0.12042,0.47162 -0.17059,0.96332 -0.0502,0.49169 -0.0502,0.94325 0,0.50172 0.0502,1.04359 0.0602,0.54187 0.19066,1.06367 0.14048,0.51176 0.35121,0.98338 0.22076,0.47163 0.54186,0.82284 0.32111,0.35121 0.74256,0.56193 0.43149,0.21073 0.99342,0.21073 z"
         style="font-style:normal;font-variant:normal;font-weight:normal;font-stretch:normal;font-size:22.57777786px;font-family:'Sitka Banner';-inkscape-font-specification:'Sitka Banner, Normal';font-variant-ligatures:normal;font-variant-caps:normal;font-variant-numeric:normal;font-feature-settings:normal;text-align:start;writing-mode:lr-tb;text-anchor:start;fill:#c6657d;fill-opacity:1;stroke-width:0.26458332"
         id="path888"
         inkscape:connector-curvature="0" />
      <path
         d="m 165.40422,142.6665 1.11383,-0.25086 q 0.20069,-0.0502 0.32111,-0.20069 0.13045,-0.15052 0.13045,-0.37128 v -6.59271 q 0,-0.2609 -0.14049,-0.45156 -0.14048,-0.19066 -0.48166,-0.31107 l -0.92318,-0.33114 v -0.27094 l 3.12075,-0.69238 v 2.19757 0 q 0.24083,-0.39135 0.53184,-0.79273 0.291,-0.41142 0.66228,-0.73252 0.37128,-0.33115 0.8128,-0.54187 0.45155,-0.21073 1.00346,-0.21073 0.28096,0 0.48165,0.0301 0.2007,0.0201 0.36125,0.0602 0.16055,0.0401 0.30104,0.10035 0.14048,0.0502 0.31107,0.11038 v 2.34809 h -0.51177 l -0.3211,-0.8429 q -0.0401,-0.10035 -0.17059,-0.17059 -0.13045,-0.0803 -0.30104,-0.12042 -0.16055,-0.0502 -0.35121,-0.0702 -0.18062,-0.0301 -0.33114,-0.0301 -0.36124,0 -0.68235,0.0903 -0.3211,0.0903 -0.61211,0.2609 -0.291,0.17058 -0.56193,0.43148 -0.2609,0.2609 -0.51176,0.60208 v 5.93043 q 0,0.23079 0.12041,0.38131 0.13045,0.15052 0.33114,0.19066 l 1.29446,0.25086 v 0.45156 h -4.99721 z"
         style="font-style:normal;font-variant:normal;font-weight:normal;font-stretch:normal;font-size:22.57777786px;font-family:'Sitka Banner';-inkscape-font-specification:'Sitka Banner, Normal';font-variant-ligatures:normal;font-variant-caps:normal;font-variant-numeric:normal;font-feature-settings:normal;text-align:start;writing-mode:lr-tb;text-anchor:start;fill:#c6657d;fill-opacity:1;stroke-width:0.26458332"
         id="path890"
         inkscape:connector-curvature="0" />
      <path
         d="m 179.27214,141.68311 q -0.35121,0.53184 -0.77266,0.85294 -0.41141,0.32111 -0.8429,0.50173 -0.42145,0.17059 -0.8429,0.22076 -0.41142,0.0602 -0.76263,0.0602 -0.57197,0 -1.0436,-0.21073 -0.46159,-0.21072 -0.80276,-0.56193 -0.33114,-0.35121 -0.5218,-0.82284 -0.18062,-0.47162 -0.18062,-0.99342 0,-0.61211 0.21072,-1.09377 0.22076,-0.48166 0.58201,-0.8429 0.37128,-0.37128 0.8429,-0.62214 0.47163,-0.2609 0.97336,-0.42146 0.50172,-0.16055 1.00345,-0.23079 0.50173,-0.0803 0.93322,-0.0803 0.0903,0 0.2609,0.0201 0.17058,0.01 0.35121,0.0301 0.19065,0.01 0.36124,0.0201 0.18062,0.01 0.28097,0.01 l 0.01,-1.80622 q 0,-0.48166 -0.0903,-0.80277 -0.0803,-0.32111 -0.2609,-0.50173 -0.17058,-0.19065 -0.44152,-0.2609 -0.27093,-0.0803 -0.65224,-0.0803 -0.4917,0 -0.96332,0.17058 -0.46159,0.16056 -0.87301,0.40139 -0.41142,0.24083 -0.76263,0.51176 -0.35121,0.2609 -0.60207,0.45156 h -0.22076 l -0.31107,-1.58547 q 0.291,-0.16055 0.64221,-0.3211 0.36124,-0.17059 0.77266,-0.291 0.41142,-0.13045 0.87301,-0.21073 0.47162,-0.0803 0.98339,-0.0803 0.6121,0 1.25432,0.17059 0.64221,0.16055 1.16401,0.53183 0.52179,0.37128 0.8429,0.98339 0.33114,0.61211 0.32111,1.49515 l -0.0602,5.25811 q 0,0.15052 0.0502,0.27094 0.0502,0.11038 0.15052,0.20069 0.11038,0.0803 0.2609,0.13045 0.16055,0.0401 0.37128,0.0401 0.0502,0 0.16055,-0.0201 0.11038,-0.0201 0.24083,-0.0401 0.14048,-0.0301 0.27093,-0.0602 0.14049,-0.0401 0.24083,-0.0702 h 0.10035 v 0.48166 q -0.14048,0.11038 -0.37128,0.2609 -0.22076,0.14048 -0.49169,0.27093 -0.2609,0.12042 -0.55191,0.21073 -0.28096,0.0903 -0.54186,0.0903 -0.38132,0 -0.67232,-0.0803 -0.291,-0.0803 -0.49169,-0.2609 -0.19066,-0.19065 -0.291,-0.50173 -0.0903,-0.3211 -0.0903,-0.79273 z m 0.0301,-3.65258 q -0.91315,0 -1.65571,0.13045 -0.73252,0.13045 -1.25432,0.41142 -0.51176,0.28097 -0.79273,0.72249 -0.28096,0.44152 -0.28096,1.05363 0,0.52179 0.15051,0.88304 0.16056,0.35121 0.40139,0.57197 0.25086,0.22076 0.5519,0.32111 0.31107,0.0903 0.60207,0.0903 0.28097,0 0.59204,-0.0602 0.32111,-0.0602 0.62214,-0.18062 0.30104,-0.13045 0.57197,-0.33114 0.27094,-0.2007 0.46159,-0.48166 z"
         style="font-style:normal;font-variant:normal;font-weight:normal;font-stretch:normal;font-size:22.57777786px;font-family:'Sitka Banner';-inkscape-font-specification:'Sitka Banner, Normal';font-variant-ligatures:normal;font-variant-caps:normal;font-variant-numeric:normal;font-feature-settings:normal;text-align:start;writing-mode:lr-tb;text-anchor:start;fill:#c6657d;fill-opacity:1;stroke-width:0.26458332"
         id="path892"
         inkscape:connector-curvature="0" />
      <path
         d="m 184.23326,134.25753 h -1.56539 v -0.49169 q 0.39135,-0.10035 0.70242,-0.18062 0.31107,-0.0903 0.53183,-0.24083 0.2308,-0.15052 0.36125,-0.41142 0.13045,-0.2609 0.16055,-0.71245 l 0.0702,-1.23426 1.42491,-0.30103 v 2.76954 h 3.43182 l -0.291,0.80276 h -3.14082 v 6.85361 q 0,0.30104 0.20069,0.51177 0.20069,0.20069 0.48166,0.34117 0.291,0.13045 0.60207,0.19066 0.32111,0.0602 0.56194,0.0602 0.16055,0 0.36124,-0.0301 0.2007,-0.0401 0.39135,-0.0803 0.19066,-0.0502 0.34118,-0.10035 0.16055,-0.0602 0.24083,-0.10035 h 0.10034 v 0.53184 q -0.14048,0.0903 -0.39134,0.24083 -0.24083,0.14048 -0.57198,0.28096 -0.3211,0.14049 -0.72248,0.24083 -0.39135,0.10035 -0.83287,0.10035 -0.53184,0 -0.98339,-0.13045 -0.44152,-0.13045 -0.77266,-0.37128 -0.32111,-0.25086 -0.51177,-0.61211 -0.18062,-0.37128 -0.18062,-0.85294 z"
         style="font-style:normal;font-variant:normal;font-weight:normal;font-stretch:normal;font-size:22.57777786px;font-family:'Sitka Banner';-inkscape-font-specification:'Sitka Banner, Normal';font-variant-ligatures:normal;font-variant-caps:normal;font-variant-numeric:normal;font-feature-settings:normal;text-align:start;writing-mode:lr-tb;text-anchor:start;fill:#c6657d;fill-opacity:1;stroke-width:0.26458332"
         id="path894"
         inkscape:connector-curvature="0" />
      <path
         d="m 191.9115,130.82571 q -0.25086,0 -0.47162,-0.0903 -0.22076,-0.10035 -0.38131,-0.2609 -0.16056,-0.16055 -0.2609,-0.38131 -0.0903,-0.22076 -0.0903,-0.48166 0,-0.25087 0.0903,-0.47163 0.10034,-0.22076 0.2609,-0.38131 0.16055,-0.16055 0.38131,-0.25086 0.22076,-0.10035 0.47162,-0.10035 0.25087,0 0.47163,0.10035 0.23079,0.0903 0.40138,0.25086 0.17059,0.16055 0.2609,0.38131 0.10035,0.22076 0.10035,0.47163 0,0.2609 -0.10035,0.48166 -0.0903,0.22076 -0.2609,0.38131 -0.17059,0.16055 -0.40138,0.2609 -0.22076,0.0903 -0.47163,0.0903 z m -2.31798,11.84079 1.13391,-0.25086 q 0.20069,-0.0502 0.3211,-0.20069 0.13045,-0.15052 0.13045,-0.37128 v -6.61278 q 0,-0.2609 -0.14048,-0.44152 -0.14049,-0.18063 -0.48166,-0.30104 l -0.92318,-0.33114 v -0.27094 l 3.23113,-0.69238 v 8.6498 q 0,0.23079 0.12041,0.38131 0.13045,0.14048 0.33114,0.19066 l 1.0436,0.25086 v 0.45156 h -4.76642 z"
         style="font-style:normal;font-variant:normal;font-weight:normal;font-stretch:normal;font-size:22.57777786px;font-family:'Sitka Banner';-inkscape-font-specification:'Sitka Banner, Normal';font-variant-ligatures:normal;font-variant-caps:normal;font-variant-numeric:normal;font-feature-settings:normal;text-align:start;writing-mode:lr-tb;text-anchor:start;fill:#c6657d;fill-opacity:1;stroke-width:0.26458332"
         id="path896"
         inkscape:connector-curvature="0" />
      <path
         d="m 199.69966,143.38899 q -1.05363,0 -1.90657,-0.36124 -0.8429,-0.36125 -1.44497,-1.03356 -0.59204,-0.67232 -0.91315,-1.61557 -0.32111,-0.94325 -0.32111,-2.10726 0,-1.0737 0.32111,-2.00691 0.32111,-0.94325 0.92318,-1.64567 0.60207,-0.70242 1.46505,-1.1038 0.873,-0.40139 1.97681,-0.40139 1.18408,0 2.04705,0.43149 0.86297,0.42145 1.42491,1.13391 0.56193,0.70242 0.83287,1.63563 0.28096,0.92318 0.28096,1.9166 0,1.06367 -0.3211,2.00692 -0.31107,0.93321 -0.91315,1.63563 -0.60207,0.70242 -1.47508,1.11384 -0.86297,0.40138 -1.97681,0.40138 z m 0.14048,-0.66228 q 0.80277,0 1.32457,-0.41142 0.5218,-0.42145 0.82283,-1.05363 0.31107,-0.64221 0.43149,-1.3948 0.12041,-0.7526 0.12041,-1.43495 0,-0.83287 -0.16055,-1.66573 -0.15052,-0.83287 -0.49169,-1.49515 -0.34118,-0.67232 -0.89308,-1.08374 -0.5519,-0.42145 -1.3346,-0.42145 -0.53183,0 -0.93321,0.19066 -0.40138,0.19065 -0.70242,0.52179 -0.30104,0.32111 -0.50173,0.7526 -0.20069,0.42145 -0.33114,0.90311 -0.12042,0.47162 -0.17059,0.96332 -0.0502,0.49169 -0.0502,0.94325 0,0.50172 0.0502,1.04359 0.0602,0.54187 0.19066,1.06367 0.14048,0.51176 0.35121,0.98338 0.22076,0.47163 0.54186,0.82284 0.32111,0.35121 0.74256,0.56193 0.43149,0.21073 0.99342,0.21073 z"
         style="font-style:normal;font-variant:normal;font-weight:normal;font-stretch:normal;font-size:22.57777786px;font-family:'Sitka Banner';-inkscape-font-specification:'Sitka Banner, Normal';font-variant-ligatures:normal;font-variant-caps:normal;font-variant-numeric:normal;font-feature-settings:normal;text-align:start;writing-mode:lr-tb;text-anchor:start;fill:#c6657d;fill-opacity:1;stroke-width:0.26458332"
         id="path898"
         inkscape:connector-curvature="0" />
      <path
         d="m 205.33227,142.6665 1.09377,-0.25086 q 0.20069,-0.0502 0.32111,-0.20069 0.13045,-0.15052 0.13045,-0.37128 v -6.61278 q 0,-0.2609 -0.14049,-0.44152 -0.14048,-0.18063 -0.48166,-0.30104 l -0.92318,-0.33114 v -0.27094 l 3.18096,-0.69238 v 1.6256 0 q 0.38132,-0.53183 0.76263,-0.86297 0.39135,-0.34118 0.7827,-0.5218 0.39134,-0.19066 0.79273,-0.25087 0.40138,-0.0702 0.8128,-0.0702 0.65224,0 1.22421,0.20069 0.57197,0.19066 0.99343,0.61211 0.42145,0.41142 0.66228,1.0737 0.24083,0.65225 0.24083,1.56539 v 5.23805 q 0,0.25086 0.13045,0.41142 0.14048,0.15051 0.3211,0.20069 l 0.96332,0.25086 v 0.45156 h -4.63597 v -0.45156 l 1.1038,-0.25086 q 0.19066,-0.0502 0.31107,-0.20069 0.12042,-0.16056 0.12042,-0.41142 v -4.60587 q 0,-0.67231 -0.0803,-1.21418 -0.0702,-0.5519 -0.31107,-0.93322 -0.23079,-0.39134 -0.65225,-0.60207 -0.42145,-0.21073 -1.11383,-0.21073 -0.30104,0 -0.63218,0.0602 -0.32111,0.0602 -0.64221,0.19066 -0.31107,0.12041 -0.60208,0.3211 -0.28096,0.2007 -0.50173,0.48166 v 6.55258 q 0,0.23079 0.12042,0.38131 0.13045,0.14048 0.33114,0.19066 l 0.96332,0.25086 v 0.45156 h -4.64601 z"
         style="font-style:normal;font-variant:normal;font-weight:normal;font-stretch:normal;font-size:22.57777786px;font-family:'Sitka Banner';-inkscape-font-specification:'Sitka Banner, Normal';font-variant-ligatures:normal;font-variant-caps:normal;font-variant-numeric:normal;font-feature-settings:normal;text-align:start;writing-mode:lr-tb;text-anchor:start;fill:#c6657d;fill-opacity:1;stroke-width:0.26458332"
         id="path900"
         inkscape:connector-curvature="0" />
      <path
         d="m 226.68716,143.38899 q -1.05363,0 -1.90656,-0.36124 -0.84291,-0.36125 -1.44498,-1.03356 -0.59204,-0.67232 -0.91315,-1.61557 -0.3211,-0.94325 -0.3211,-2.10726 0,-1.0737 0.3211,-2.00691 0.32111,-0.94325 0.92318,-1.64567 0.60208,-0.70242 1.46505,-1.1038 0.87301,-0.40139 1.97681,-0.40139 1.18408,0 2.04705,0.43149 0.86297,0.42145 1.42491,1.13391 0.56194,0.70242 0.83287,1.63563 0.28097,0.92318 0.28097,1.9166 0,1.06367 -0.32111,2.00692 -0.31107,0.93321 -0.91314,1.63563 -0.60208,0.70242 -1.47509,1.11384 -0.86297,0.40138 -1.97681,0.40138 z m 0.14049,-0.66228 q 0.80276,0 1.32456,-0.41142 0.5218,-0.42145 0.82284,-1.05363 0.31107,-0.64221 0.43148,-1.3948 0.12042,-0.7526 0.12042,-1.43495 0,-0.83287 -0.16056,-1.66573 -0.15051,-0.83287 -0.49169,-1.49515 -0.34118,-0.67232 -0.89308,-1.08374 -0.5519,-0.42145 -1.33459,-0.42145 -0.53184,0 -0.93322,0.19066 -0.40138,0.19065 -0.70242,0.52179 -0.30104,0.32111 -0.50173,0.7526 -0.20069,0.42145 -0.33114,0.90311 -0.12041,0.47162 -0.17059,0.96332 -0.0502,0.49169 -0.0502,0.94325 0,0.50172 0.0502,1.04359 0.0602,0.54187 0.19066,1.06367 0.14049,0.51176 0.35121,0.98338 0.22076,0.47163 0.54187,0.82284 0.3211,0.35121 0.74256,0.56193 0.43148,0.21073 0.99342,0.21073 z"
         style="font-style:normal;font-variant:normal;font-weight:normal;font-stretch:normal;font-size:22.57777786px;font-family:'Sitka Banner';-inkscape-font-specification:'Sitka Banner, Normal';font-variant-ligatures:normal;font-variant-caps:normal;font-variant-numeric:normal;font-feature-settings:normal;text-align:start;writing-mode:lr-tb;text-anchor:start;fill:#c6657d;fill-opacity:1;stroke-width:0.26458332"
         id="path902"
         inkscape:connector-curvature="0" />
      <path
         d="m 232.29971,142.6665 1.11383,-0.25086 q 0.2007,-0.0502 0.32111,-0.20069 0.13045,-0.15052 0.13045,-0.37128 v -7.58614 h -1.72595 l 0.18063,-0.80276 h 1.55535 q 0,-1.44498 0.29101,-2.50864 0.291,-1.06367 0.8128,-1.75605 0.53183,-0.70242 1.26435,-1.0436 0.73253,-0.35121 1.60553,-0.35121 0.16056,0 0.36125,0.0301 0.20069,0.0201 0.41142,0.0803 0.21072,0.0502 0.42145,0.13045 0.21072,0.0702 0.39135,0.17059 l -0.31108,1.51522 h -0.19065 q -0.24083,-0.15052 -0.47163,-0.291 -0.23079,-0.14049 -0.48166,-0.24083 -0.24083,-0.11038 -0.53183,-0.17059 -0.28097,-0.0702 -0.63218,-0.0702 -0.46159,0 -0.70242,0.15052 -0.24083,0.15051 -0.35121,0.44152 -0.0903,0.25086 -0.14048,0.64221 -0.0502,0.39135 -0.0702,0.90311 -0.0201,0.50173 -0.0301,1.1038 0,0.60208 0,1.26436 h 2.6993 l -0.23079,0.80276 h -2.4384 v 7.58614 q 0,0.23079 0.12041,0.38131 0.13045,0.15052 0.33114,0.19066 l 1.29446,0.25086 v 0.45156 h -4.99721 z"
         style="font-style:normal;font-variant:normal;font-weight:normal;font-stretch:normal;font-size:22.57777786px;font-family:'Sitka Banner';-inkscape-font-specification:'Sitka Banner, Normal';font-variant-ligatures:normal;font-variant-caps:normal;font-variant-numeric:normal;font-feature-settings:normal;text-align:start;writing-mode:lr-tb;text-anchor:start;fill:#c6657d;fill-opacity:1;stroke-width:0.26458332"
         id="path904"
         inkscape:connector-curvature="0" />
    </g>
    <circle
       style="opacity:1;fill:none;fill-opacity:1;stroke:#000000;stroke-width:0.86500001;stroke-linecap:round;stroke-linejoin:miter;stroke-miterlimit:4;stroke-dasharray:none;stroke-dashoffset:0.40062991;stroke-opacity:0;paint-order:normal"
       id="path963"
       cx="148.9325"
       cy="61.067501"
       r="148.5" />
  </g>
</svg>
