<?xml version="1.0" encoding="UTF-8" standalone="no"?>
<svg
   xmlns:dc="http://purl.org/dc/elements/1.1/"
   xmlns:cc="http://creativecommons.org/ns#"
   xmlns:rdf="http://www.w3.org/1999/02/22-rdf-syntax-ns#"
   xmlns:svg="http://www.w3.org/2000/svg"
   xmlns="http://www.w3.org/2000/svg"
   xmlns:xlink="http://www.w3.org/1999/xlink"
   xmlns:sodipodi="http://sodipodi.sourceforge.net/DTD/sodipodi-0.dtd"
   xmlns:inkscape="http://www.inkscape.org/namespaces/inkscape"
   width="60mm"
   height="60mm"
   viewBox="0 0 60 60"
   version="1.1"
   id="svg8"
   inkscape:version="0.92.4 (5da689c313, 2019-01-14)"
   sodipodi:docname="DeveloperPackages.svg"
   inkscape:export-filename="D:\ResDev\_Orgs\DevelopersPackages.org\workingdir\標章\DeveloperPackages.png"
   inkscape:export-xdpi="1733.9734"
   inkscape:export-ydpi="1733.9734">
  <defs
     id="defs2">
    <linearGradient
       inkscape:collect="always"
       id="linearGradient166">
      <stop
         style="stop-color:#80e5ff;stop-opacity:1"
         offset="0"
         id="stop162" />
      <stop
         style="stop-color:#87cdde;stop-opacity:1"
         offset="1"
         id="stop164" />
    </linearGradient>
    <linearGradient
       inkscape:collect="always"
       xlink:href="#linearGradient166"
       id="linearGradient168"
       x1="13.206882"
       y1="4.7091165"
       x2="63.760372"
       y2="23.764612"
       gradientUnits="userSpaceOnUse" />
  </defs>
  <sodipodi:namedview
     id="base"
     pagecolor="#ffffff"
     bordercolor="#666666"
     borderopacity="1.0"
     inkscape:pageopacity="0.0"
     inkscape:pageshadow="2"
     inkscape:zoom="1.9116146"
     inkscape:cx="124.60833"
     inkscape:cy="180.18704"
     inkscape:document-units="mm"
     inkscape:current-layer="layer1"
     inkscape:document-rotation="0"
     showgrid="true"
     inkscape:window-width="1822"
     inkscape:window-height="1051"
     inkscape:window-x="1689"
     inkscape:window-y="-9"
     inkscape:window-maximized="1" />
  <metadata
     id="metadata5">
    <rdf:RDF>
      <cc:Work
         rdf:about="">
        <dc:format>image/svg+xml</dc:format>
        <dc:type
           rdf:resource="http://purl.org/dc/dcmitype/StillImage" />
        <dc:title></dc:title>
      </cc:Work>
    </rdf:RDF>
  </metadata>
  <g
     inkscape:label="レイヤー 1"
     inkscape:groupmode="layer"
     id="layer1">
    <text
       xml:space="preserve"
       style="font-size:1.62833px;line-height:1.25;font-family:'Bowlby One SC';-inkscape-font-specification:'Bowlby One SC';letter-spacing:0px;word-spacing:0px;stroke-width:0.0305314"
       x="21.39233"
       y="19.128733"
       id="text160"
       transform="matrix(0.97565149,0.56814679,-0.44571488,0.76540499,0,0)"
       inkscape:export-xdpi="1733.9734"
       inkscape:export-ydpi="1733.9734"><tspan
         sodipodi:role="line"
         id="tspan158"
         x="21.39233"
         y="19.128733"
         style="stroke-width:0.0305314">logo by monhu</tspan></text>
    <path
       style="fill:none;stroke:#000000;stroke-width:0.264583px;stroke-linecap:butt;stroke-linejoin:miter;stroke-opacity:1"
       d="M 8.660254,15 30.310889,2.5 51.961524,15"
       id="path44" />
    <path
       style="fill:none;stroke:#000000;stroke-width:0.264583px;stroke-linecap:butt;stroke-linejoin:miter;stroke-opacity:1"
       d="m 30.310889,2.5 v 25"
       id="path46" />
    <path
       style="fill:#6f7c91;stroke-width:0.278996"
       d="M 74.213068,79.901038 C 52.423495,67.320296 34.499465,56.930765 34.381892,56.81319 34.264318,56.695618 52.067372,46.267039 73.944233,33.638574 95.821095,21.010107 113.77689,10.734266 113.84599,10.80337 c 0.0691,0.0691 0.0939,20.791017 0.0551,46.048693 l -0.0706,45.923047 z"
       id="path70"
       transform="scale(0.26458333)" />
    <path
       style="fill:#6f7c91;stroke-width:0.278996"
       d="M 115.08596,56.660322 V 10.490889 l 5.92867,3.421886 c 71.51896,41.27902 73.89737,42.670056 73.53482,43.007561 -0.29903,0.278374 -76.70723,44.452544 -78.83575,45.577614 l -0.62774,0.33181 z"
       id="path72"
       transform="scale(0.26458333)" />
    <path
       style="fill:#535d6c;stroke-width:0.278996"
       d="M 110.06403,100.45706 C 108.14593,99.344966 92.766259,90.456485 75.886985,80.704882 35.04745,57.110801 34.747587,56.936395 34.745058,56.77574 34.7403,56.473473 84.141268,27.786394 108.39005,14.01019 l 5.16143,-2.932309 0.0714,22.848929 c 0.0393,12.566911 0.0393,33.132175 0,45.700586 l -0.0714,22.851654 z"
       id="path74"
       transform="scale(0.26458333)" />
    <path
       style="fill:#535d6c;stroke-width:0.278996"
       d="m 115.08596,56.666092 c 0,-25.258605 0.0488,-45.924736 0.10847,-45.924736 0.10273,0 41.55095,23.910396 60.43372,34.862637 11.5037,6.672288 18.69275,10.965438 18.69275,11.16292 0,0.18488 -0.0371,0.206608 -27.62063,16.183868 -28.79403,16.67841 -50.682,29.282289 -51.191,29.477609 -0.37736,0.14481 -0.42331,-4.822801 -0.42331,-45.762298 z"
       id="path76"
       transform="scale(0.26458333)" />
    <path
       style="fill:#939dac;stroke-width:0.278996"
       d="M 79.932431,82.983389 C 36.644906,57.962197 35.014032,57.011794 35.014032,56.806857 c 0,-0.381594 30.504374,-18.188117 63.47165,-37.050728 l 14.786798,-8.460442 0.14434,8.441468 c 0.19024,11.125637 0.19314,63.329559 0.004,74.076629 l -0.14847,8.440926 z"
       id="path78"
       transform="scale(0.26458333)" />
    <path
       style="fill:#6f7c91;stroke-width:0.278996"
       d="m 115.23874,96.341228 c -0.22968,-7.218741 -0.0841,-84.92465 0.15954,-85.168242 0.16744,-0.167406 10.68911,5.824334 40.28164,22.939065 30.97164,17.912338 38.36198,22.275073 38.36198,22.646207 0,0.289649 -2.85313,1.972432 -28.17862,16.619777 -43.3174,25.053215 -49.20283,28.436955 -49.97859,28.734465 -0.4107,0.1575 -0.47583,-0.42438 -0.64595,-5.771272 z"
       id="path80"
       transform="scale(0.26458333)" />
    <g
       aria-label="Dev"
       transform="scale(0.79124109,1.2638373)"
       id="text156"
       style="font-size:25.1234px;line-height:1.25;font-family:'Bowlby One SC';-inkscape-font-specification:'Bowlby One SC';letter-spacing:0px;word-spacing:0px;fill:url(#linearGradient168);fill-opacity:1;stroke-width:0.471064">
      <path
         d="m 13.27029,5.3362758 q 0,-0.1349401 0.147207,-0.2330784 0.159475,-0.1104055 0.45389,-0.1594747 0.294414,-0.061336 0.588829,-0.098138 0.294415,-0.036802 0.699235,-0.049069 0.417088,-0.012267 0.686968,-0.012267 0.269881,0 0.613365,0.012267 0.355751,0 0.417087,0 h 1.373936 q 0.404821,0 1.128591,-0.024535 0.736037,-0.024535 1.079521,-0.024535 5.851495,0 8.366288,2.0118347 l 0.441622,0.3925531 q 0.208544,0.1962766 0.466157,0.515226 0.257613,0.3066821 0.625632,0.944581 0.380285,0.6256315 0.6747,1.3616686 0.294415,0.7360374 0.502959,1.8155584 0.208544,1.079521 0.208544,2.232646 0,1.791023 -0.490692,3.348968 -0.490691,1.557946 -1.349401,2.698803 -0.846443,1.140858 -1.999567,1.975033 -1.140858,0.821908 -2.477992,1.238996 -1.337134,0.40482 -2.760139,0.40482 h -0.392553 q -0.527493,0 -1.570213,-0.02453 -1.042719,-0.02454 -1.570212,-0.02454 -3.079089,0 -5.569348,0.09814 -0.294414,-0.588829 -0.294414,-1.079521 z m 7.213163,14.0828432 q 0.736037,0 1.324867,-0.159475 0.58883,-0.171742 0.99365,-0.441622 0.40482,-0.26988 0.711503,-0.686968 0.306682,-0.417088 0.478424,-0.85871 0.184009,-0.441622 0.282147,-1.005917 0.110406,-0.576563 0.147208,-1.079521 0.0368,-0.515226 0.0368,-1.140858 v -0.760571 q 0,-2.257181 -0.895512,-3.3244347 -0.895512,-1.0795211 -3.128158,-1.1408575 -0.06134,0.1349401 -0.196277,0.3680185 -0.13494,0.2330785 -0.196276,0.3680186 v 0.5888301 q 0,0.184009 -0.01227,0.956848 -0.159475,8.219081 0.453889,8.317219 z"
         style="fill:url(#linearGradient168);fill-opacity:1;stroke-width:0.471064"
         id="path59" />
      <path
         d="m 33.216895,7.495318 q 0,-0.7360371 0.06134,-0.8587099 0.110405,-0.171742 0.355751,-0.171742 h 0.294415 q 0.196276,0 0.26988,0.024534 h 0.637899 q 1.238996,0 3.741522,-0.061336 2.514793,-0.061336 3.766056,-0.061336 h 3.263098 q 0.31895,0.036802 0.31895,0.3189494 V 10.78295 q -0.01227,0.0736 -0.04907,0.134941 -0.02453,0.04907 -0.04907,0.0736 -0.01227,0.01227 -0.110405,0.08587 -0.09814,0.06134 -0.13494,0.09814 h -5.692021 v 1.521143 h 0.539761 q 0.711502,0 2.171309,-0.04907 1.459807,-0.04907 2.244913,-0.04907 0.343484,0 0.466157,0.13494 0.122673,0.13494 0.122673,0.380286 0,0.06134 -0.02453,0.208543 -0.02454,0.147208 -0.02454,0.208544 v 0.466157 q 0,0.04907 0.01227,0.208544 0.01227,0.147207 0.01227,0.257613 v 0.343484 q 0,0.26988 0.02453,0.53976 0.02454,0.269881 0.02454,0.466157 v 0.31895 q -0.06134,0.147207 -0.09814,0.196276 -0.0368,0.04907 -0.122672,0.04907 v -0.02453 q -0.45389,0 -1.570213,0.06134 -1.104056,0.06134 -1.766489,0.06134 h -1.962766 v 1.570212 q 0.09814,0 0.294415,0.01227 0.196277,0.01227 0.294415,0.01227 0.552028,0 1.631549,-0.0368 1.079521,-0.0368 1.557945,-0.0368 h 1.570213 q 0.637899,0 0.809641,0.147207 0.06134,0.0736 0.09814,0.147208 v 3.925531 q 0,0.257613 -0.09814,0.392553 -0.09814,0.13494 -0.368019,0.147208 H 33.584914 l -0.368019,-0.31895 z"
         style="fill:url(#linearGradient168);fill-opacity:1;stroke-width:0.471064"
         id="path61" />
      <path
         d="m 55.874572,12.549439 q 0.08587,-0.466156 0.466157,-1.778756 0.392553,-1.3248667 0.466157,-2.0977056 v -0.85871 q 0,-0.024535 0.02453,-0.2085438 0.0368,-0.1840093 0.0368,-0.2208112 0.01227,-0.036802 0.0368,-0.1840092 0.0368,-0.1594747 0.06134,-0.2085439 0.0368,-0.049069 0.08587,-0.1594747 0.06134,-0.1104055 0.122673,-0.1472074 0.06134,-0.049069 0.147208,-0.1104056 0.09814,-0.061336 0.208543,-0.085871 0.122673,-0.024534 0.257613,-0.024534 h 5.593882 q 0.02454,0.012267 0.147208,0.098138 0.122673,0.085871 0.196276,0.1472074 0.08587,0.061336 0.09814,0.098138 L 59.714232,21.590429 q -0.13494,0.515225 -0.343484,0.870977 -0.196276,0.343484 -0.453889,0.343484 H 50.526036 Q 50.329759,22.019783 50.072146,20.95253 49.814533,19.885276 49.55692,18.830289 49.299307,17.763036 49.103031,16.965662 L 46.12208,6.8328846 q 0,-0.2821475 0.404821,-0.3680185 v -0.049069 q 0.736037,0 2.220378,-0.024535 1.496609,-0.024535 2.17131,-0.024535 h 2.011835 q 0.08587,0 0.110405,0.036802 0.0368,0.024535 0.0736,0.1226729 0.04907,0.085871 0.122673,0.1594747 l 1.754221,10.1818468 1.079522,-2.968683 z"
         style="fill:url(#linearGradient168);fill-opacity:1;stroke-width:0.471064"
         id="path63" />
    </g>
    <path
       style="fill:none;stroke:#000000;stroke-width:0.264583px;stroke-linecap:butt;stroke-linejoin:miter;stroke-opacity:1"
       d="M 8.660254,39.999999 30.310889,52.5 51.961524,40"
       id="path26" />
    <path
       style="fill:none;stroke:#000000;stroke-width:0.264583px;stroke-linecap:butt;stroke-linejoin:miter;stroke-opacity:1"
       d="m 30.310889,52.5 v -25"
       id="path28" />
    <path
       style="fill:#939dac;stroke-width:0.278996"
       d="m 115.08596,151.92328 c 0,-25.01741 0.043,-45.4862 0.0956,-45.4862 0.0526,0 3.53654,5.96901 7.74214,13.26448 5.46139,9.47388 7.76615,13.23367 8.06505,13.15665 0.23017,-0.0593 14.70327,-8.35631 32.16244,-18.43779 17.45918,-10.08147 31.92923,-18.401053 32.15569,-18.487951 0.36156,-0.138746 0.40307,3.201361 0.34062,27.411451 l -0.0711,27.56944 -39.75696,22.97026 c -21.86634,12.63365 -39.97668,23.09527 -40.24522,23.24807 -0.46413,0.26408 -0.48824,-1.96838 -0.48824,-45.20841 z"
       id="path58"
       transform="scale(0.26458333)" />
    <path
       style="fill:#6f7c91;stroke-width:0.278996"
       d="m 73.655015,174.0671 -40.175463,-23.19631 -0.0711,-27.64932 -0.0711,-27.649313 1.605582,0.933646 c 16.54116,9.618697 63.180004,36.435917 63.367074,36.435917 0.139579,0 3.688782,-5.95285 7.887122,-13.22855 l 7.63335,-13.22856 0.0714,22.71443 c 0.0393,12.49294 0.0393,32.91817 0,45.3894 l -0.0714,22.67498 z"
       id="path62"
       transform="scale(0.26458333)" />
    <path
       style="fill:none;stroke:#000000;stroke-width:0.264583px;stroke-linecap:butt;stroke-linejoin:miter;stroke-opacity:1"
       d="M 4.330127,22.5 8.660254,15 30.310889,27.5 25.980762,35 Z"
       id="path36" />
    <path
       style="fill:none;stroke:#000000;stroke-width:0.264583px;stroke-linecap:butt;stroke-linejoin:miter;stroke-opacity:1"
       d="M 8.660254,39.999999 V 25"
       id="path38" />
    <path
       style="fill:none;stroke:#000000;stroke-width:0.264583px;stroke-linecap:butt;stroke-linejoin:miter;stroke-opacity:1"
       d="M 30.310889,27.5 51.961523,15 56.291651,22.5 34.641016,35 Z"
       id="path40" />
    <path
       style="fill:none;stroke:#000000;stroke-width:0.264583px;stroke-linecap:butt;stroke-linejoin:miter;stroke-opacity:1"
       d="M 51.961523,39.999999 V 25"
       id="path42" />
    <path
       style="fill:#939dac;stroke-width:0.278996"
       d="M 59.007711,108.92224 C 37.75517,96.642346 19.660841,86.194407 18.79809,85.704598 l -1.568637,-0.890562 7.76024,-13.391406 c 4.268133,-7.365274 7.803502,-13.499502 7.856376,-13.63162 0.08994,-0.224735 79.778621,45.57643 80.461931,46.24559 0.23199,0.22719 -1.71647,3.81861 -7.42582,13.68738 -4.25718,7.35866 -7.851292,13.41222 -7.98691,13.45236 -0.135617,0.0401 -17.635019,-9.9742 -38.887559,-22.2541 z"
       id="path60"
       transform="scale(0.26458333)" />
    <path
       style="fill:#b7bec8;stroke-width:0.278996"
       d="m 123.36705,117.9036 c -4.2477,-7.36171 -7.7231,-13.48985 -7.7231,-13.61808 0,-0.23292 80.0077,-46.533293 80.4102,-46.533293 0.11698,0 3.7241,6.081267 8.01583,13.513928 l 7.80312,13.513927 -0.75496,0.455141 c -2.51061,1.513575 -79.26327,45.759857 -79.60703,45.891767 -0.31817,0.1221 -2.30662,-3.10652 -8.14406,-13.22339 z"
       id="path64"
       transform="scale(0.26458333)" />
    <path
       style="fill:none;stroke:#000000;stroke-width:0.264583px;stroke-linecap:butt;stroke-linejoin:miter;stroke-opacity:1"
       d="m 51.095499,39.5 -3.464102,1.999998 V 40.5 l 3.464102,-2 z"
       id="path82" />
    <path
       style="fill:#37c871;stroke-width:0.261559"
       d="m 180.6564,154.59444 0.0809,-1.22005 5.83344,-3.37121 5.83345,-3.3712 -0.0791,1.22551 -0.0791,1.22552 -4.44651,2.56984 c -2.44557,1.41341 -5.0714,2.928 -5.83516,3.36574 l -1.38866,0.7959 z"
       id="path86"
       transform="scale(0.26458333)" />
    <path
       style="fill:none;stroke:#000000;stroke-width:0.264583px;stroke-linecap:butt;stroke-linejoin:miter;stroke-opacity:1"
       d="M 47.631397,39.5 V 38.499999 L 51.095499,36.5 v 1 z"
       id="path88" />
    <path
       style="fill:#37c871;stroke-width:0.261559"
       d="m 180.60649,147.05349 v -1.16739 l 5.7269,-3.30297 c 3.1498,-1.81663 5.79808,-3.30296 5.88508,-3.30296 0.087,0 0.1546,0.50023 0.15024,1.11162 l -0.008,1.11163 -4.34316,2.48481 c -2.38874,1.36665 -5.03345,2.87807 -5.87714,3.35873 l -1.53399,0.87392 z"
       id="path90"
       transform="scale(0.26458333)" />
    <path
       style="fill:none;stroke:#000000;stroke-width:0.264583px;stroke-linecap:butt;stroke-linejoin:miter;stroke-opacity:1"
       d="M 47.631397,37.499999 V 36.500001 L 51.095499,34.5 l 0,1"
       id="path92" />
    <path
       style="fill:none;stroke:#000000;stroke-width:0.264583px;stroke-linecap:butt;stroke-linejoin:miter;stroke-opacity:1"
       d="m 51.095499,35.5 -3.464102,1.999999"
       id="path94" />
    <path
       style="fill:#37c871;stroke-width:0.261559"
       d="m 180.60649,139.48385 v -1.14883 l 5.7383,-3.32003 c 3.15607,-1.82602 5.80435,-3.32003 5.88508,-3.32003 0.0807,0 0.14466,0.50023 0.14207,1.11162 l -0.005,1.11163 -4.63797,2.66359 c -2.55088,1.46497 -5.19705,2.97573 -5.88037,3.35724 l -1.24241,0.69365 z"
       id="path98"
       transform="scale(0.26458333)" />
    <path
       style="fill:none;stroke:#000000;stroke-width:0.264583px;stroke-linecap:butt;stroke-linejoin:miter;stroke-opacity:1"
       d="M 31.176915,51.000001 V 42 l 3.464101,-2 v 9 z"
       id="path100" />
    <path
       style="fill:none;stroke:#000000;stroke-width:0.264583px;stroke-linecap:butt;stroke-linejoin:miter;stroke-opacity:1"
       d="m 36.373067,47.999999 v -12 L 40.703194,33.5 43.30127,35 v 9 z"
       id="path102" />
    <path
       style="fill:#6f8a91;stroke-width:0.261559"
       d="m 138.04447,158.40507 v -21.95658 l 7.89657,-4.56125 7.89657,-4.56126 4.59287,2.65209 4.59288,2.65208 0.0673,16.62499 0.0673,16.62499 -11.94775,6.90545 c -6.57126,3.798 -12.2218,7.05634 -12.55675,7.24076 l -0.60901,0.3353 z"
       id="path108"
       transform="scale(0.26458333)" />
    <path
       style="fill:#6f6f91;stroke-width:0.261559"
       d="m 118.49095,175.33674 0.0674,-16.30014 4.4465,-2.57139 c 2.44558,-1.41427 5.06444,-2.92557 5.81969,-3.35844 l 1.37318,-0.78704 -0.003,16.30124 -0.003,16.30124 -5.67148,3.26949 c -3.11932,1.79822 -5.76731,3.30902 -5.88442,3.35734 -0.11712,0.0483 -0.18262,-7.24722 -0.14556,-16.2123 z"
       id="path114"
       transform="scale(0.26458333)" />
    <path
       style="fill:#afc6e9;stroke:#000000;stroke-width:0.264583px;stroke-linecap:butt;stroke-linejoin:miter;stroke-opacity:1"
       d="M 37.239093,38.499999 42.435245,35.5 v 8 l -5.196153,3 z"
       id="path120" />
    <path
       style="fill:#afc6e9;stroke-width:0.261559"
       d="m 141.5079,160.20311 0.0676,-14.44183 7.45443,-4.30946 c 4.09994,-2.3702 8.19007,-4.72135 9.08918,-5.22476 l 1.63474,-0.9153 v 14.3744 14.3744 l -8.3045,4.7932 c -4.56747,2.63626 -8.68803,5.01775 -9.15679,5.29219 l -0.85229,0.49898 z"
       id="path122"
       transform="scale(0.26458333)" />
    <path
       style="fill:#afc6e9;stroke-width:0.0924751"
       d="m 141.29412,160.31124 0.002,-14.49872 9.21521,-5.31731 c 5.06836,-2.92453 9.24962,-5.33123 9.29167,-5.34824 0.0421,-0.017 0.0659,6.4909 0.0531,14.46202 l -0.0234,14.49295 -9.1088,5.26355 c -5.00983,2.89496 -9.18162,5.30427 -9.27062,5.35402 -0.15383,0.086 -0.16172,-0.62676 -0.15948,-14.40827 z"
       id="path124"
       transform="scale(0.26458333)" />
    <path
       style="fill:#afc6e9;stroke-width:0.0924751"
       d="m 140.27454,160.91865 v -15.6631 l 10.20817,-5.89423 c 5.61449,-3.24182 10.23362,-5.89422 10.26473,-5.89422 0.0311,0 0.0566,7.02811 0.0566,15.61803 v 15.61803 l -10.05667,5.80437 c -5.53116,3.19241 -10.15029,5.86509 -10.26473,5.9393 l -0.20807,0.13493 z m 10.20575,8.69119 c 5.04228,-2.90736 9.2406,-5.34821 9.32961,-5.42413 0.15285,-0.13036 0.16183,-0.94293 0.16183,-14.64228 0,-8.73235 -0.0337,-14.50425 -0.0848,-14.50425 -0.0466,0 -4.26003,2.41078 -9.3631,5.35728 l -9.2783,5.35728 -0.0234,14.5711 c -0.0129,8.0141 0.002,14.57109 0.0335,14.57109 0.0313,0 4.1824,-2.37874 9.22468,-5.28609 z"
       id="path126"
       transform="scale(0.26458333)" />
    <path
       style="fill:#5f8dd3;stroke:#000000;stroke-width:0.264583px;stroke-linecap:butt;stroke-linejoin:miter;stroke-opacity:1"
       d="m 9.5262794,39.5 7.7942286,4.499999 V 35 L 9.5262794,30.5 Z"
       id="path128" />
    <path
       style="fill:none;stroke:#000000;stroke-width:0.264583px;stroke-linecap:butt;stroke-linejoin:miter;stroke-opacity:1"
       d="M 25.980762,47.999999 V 42 l -4.330127,-2.5 0,6"
       id="path132" />
    <path
       style="fill:#2c5aa0;stroke:#000000;stroke-width:0.264583px;stroke-linecap:butt;stroke-linejoin:miter;stroke-opacity:1"
       d="m 21.650635,45.499998 4.330127,2.500001"
       id="path134" />
    <path
       style="fill:#2c5aa0;stroke-width:0.261559"
       d="m 89.757984,175.86063 -7.381133,-4.24474 -0.0079,-10.66382 -0.0079,-10.66382 1.252604,0.72458 c 0.688932,0.39852 4.102277,2.36863 7.585211,4.37803 l 6.332607,3.65344 v 10.53613 c 0,5.79487 -0.08828,10.53361 -0.196169,10.53053 -0.107893,-0.003 -3.517679,-1.91573 -7.577302,-4.25033 z"
       id="path136"
       transform="scale(0.26458333)" />
    <path
       style="fill:none;stroke:#000000;stroke-width:0.264583px;stroke-linecap:butt;stroke-linejoin:miter;stroke-opacity:1"
       d="M 29.444862,51.000001 26.846786,49.499998"
       id="path138" />
    <path
       style="fill:none;stroke:#000000;stroke-width:0.264583px;stroke-linecap:butt;stroke-linejoin:miter;stroke-opacity:1"
       d="m 26.846786,49.499998 v -4 L 29.444864,47"
       id="path140" />
    <path
       style="fill:#d35f5f;stroke:#000000;stroke-width:0.264583px;stroke-linecap:butt;stroke-linejoin:miter;stroke-opacity:1"
       d="m 29.444862,47.000001 v 4"
       id="path142" />
    <path
       style="fill:#d35f5f;stroke-width:0.261559"
       d="m 106.29368,189.1679 -4.18494,-2.43437 -0.0698,-6.86435 -0.0698,-6.86434 1.24679,0.696 c 0.68574,0.38281 2.62653,1.48271 4.31288,2.44424 l 3.06607,1.74823 0.007,6.86592 c 0.004,3.77626 -0.0222,6.86078 -0.0581,6.85449 -0.036,-0.006 -1.94862,-1.10691 -4.25034,-2.44582 z"
       id="path144"
       transform="scale(0.26458333)" />
    <path
       style="fill:none;stroke:#000000;stroke-width:0.264583px;stroke-linecap:butt;stroke-linejoin:miter;stroke-opacity:1"
       d="m 12.990381,31.5 5.196152,2.999999 V 39.5 l 2.598077,-1.5 0,-5"
       id="path146" />
    <path
       style="fill:none;stroke:#000000;stroke-width:0.264583px;stroke-linecap:butt;stroke-linejoin:miter;stroke-opacity:1"
       d="m 20.784609,33 -5.196152,-3 -2.598076,1.5"
       id="path148" />
    <path
       style="fill:#892ca0;stroke-width:0.261559"
       d="m 69.377299,139.10544 -0.06877,-9.07743 -8.893006,-5.1472 c -4.891153,-2.83096 -9.155917,-5.30568 -9.477252,-5.49938 -0.554044,-0.33398 -0.36691,-0.47743 3.620045,-2.77509 2.563179,-1.47715 4.373746,-2.36587 4.638411,-2.27677 0.238765,0.0804 4.553673,2.52885 9.588684,5.44106 l 9.154565,5.29493 v 9.10524 9.10523 l -4.246958,2.45341 -4.246958,2.45342 z"
       id="path152"
       transform="scale(0.26458333)" />
  </g>
</svg>
