<?xml version="1.0" encoding="UTF-8"?><svg id="uuid-144c534c-566c-469d-a273-a5c3acebad80" xmlns="http://www.w3.org/2000/svg" xmlns:xlink="http://www.w3.org/1999/xlink" viewBox="0 0 1024 1024"><defs><style>.uuid-343224c8-659f-4fe2-9f74-de8a3db09e63{fill:#fff;}.uuid-524cadb8-88c7-4ea7-87c9-4185292b974b{fill:url(#uuid-21d729ef-924c-494e-8e11-632b630871ba);}.uuid-0a1eff15-6e12-4a94-9c2d-e38b07fc63ed{fill:url(#uuid-22768ec3-36d2-4b4a-852b-58b0f010465c);}.uuid-b2aa97c8-3022-47fe-974b-362e15988422{fill:url(#uuid-c5a73f4e-b76a-4b5c-ab60-befdb2a7bd14);}.uuid-a2b61ac9-60fe-4b1c-816f-5bdb1eea6ca3{fill:url(#uuid-85abee61-215a-46b8-8e5b-c17c1dfcdeb9);}</style><linearGradient id="uuid-22768ec3-36d2-4b4a-852b-58b0f010465c" x1="512" y1="687" x2="827.35" y2="687" gradientUnits="userSpaceOnUse"><stop offset="0" stop-color="#656bce"/><stop offset="1" stop-color="#274b9c"/></linearGradient><linearGradient id="uuid-c5a73f4e-b76a-4b5c-ab60-befdb2a7bd14" x1="196.65" y1="687" x2="512" y2="687" gradientUnits="userSpaceOnUse"><stop offset="0" stop-color="#aed155"/><stop offset=".32" stop-color="#a4cd50"/><stop offset=".86" stop-color="#8bc544"/><stop offset=".99" stop-color="#84c341"/></linearGradient><linearGradient id="uuid-21d729ef-924c-494e-8e11-632b630871ba" y1="298.87" x2="937" y2="298.87" xlink:href="#uuid-22768ec3-36d2-4b4a-852b-58b0f010465c"/><linearGradient id="uuid-85abee61-215a-46b8-8e5b-c17c1dfcdeb9" x1="87" y1="298.87" y2="298.87" xlink:href="#uuid-c5a73f4e-b76a-4b5c-ab60-befdb2a7bd14"/></defs><circle class="uuid-343224c8-659f-4fe2-9f74-de8a3db09e63" cx="512" cy="512" r="512"/><g><polygon class="uuid-0a1eff15-6e12-4a94-9c2d-e38b07fc63ed" points="827.35 812.63 512 929.58 512 561.37 827.35 444.42 827.35 812.63"/><polygon class="uuid-b2aa97c8-3022-47fe-974b-362e15988422" points="196.65 812.63 512 929.58 512 561.37 196.65 444.42 196.65 812.63"/><polygon class="uuid-524cadb8-88c7-4ea7-87c9-4185292b974b" points="937 303.26 621.65 153.32 512 294.49 827.26 444.42 937 303.26"/><polygon class="uuid-a2b61ac9-60fe-4b1c-816f-5bdb1eea6ca3" points="87 303.26 402.35 153.32 512 294.49 196.74 444.42 87 303.26"/><polygon class="uuid-343224c8-659f-4fe2-9f74-de8a3db09e63" points="196.65 771.12 512 888.08 512 888.08 196.65 729.62 196.65 771.12"/><polygon class="uuid-343224c8-659f-4fe2-9f74-de8a3db09e63" points="827.35 771.12 512 888.08 512 888.08 827.35 729.62 827.35 771.12"/><polygon class="uuid-343224c8-659f-4fe2-9f74-de8a3db09e63" points="827.35 688.11 512 888.08 512 888.08 827.35 646.61 827.35 688.11"/></g></svg>