<?xml version="1.0" encoding="UTF-8"?><svg id="uuid-ee3efaa0-bdc1-4ac9-be36-23921572d1be" xmlns="http://www.w3.org/2000/svg" viewBox="0 0 1024 1024"><defs><style>.uuid-f035f06b-5280-47b4-9d9e-48c1b20821cf{fill:#fff;}</style></defs><circle class="uuid-f035f06b-5280-47b4-9d9e-48c1b20821cf" cx="512" cy="512" r="512"/><g><polygon points="827.35 812.63 512 929.58 512 561.37 827.35 444.42 827.35 812.63"/><polygon points="196.65 812.63 512 929.58 512 561.37 196.65 444.42 196.65 812.63"/><polygon points="937 303.26 621.65 153.32 512 294.49 827.26 444.42 937 303.26"/><polygon points="87 303.26 402.35 153.32 512 294.49 196.74 444.42 87 303.26"/><polygon class="uuid-f035f06b-5280-47b4-9d9e-48c1b20821cf" points="196.65 771.12 512 888.08 512 888.08 196.65 729.62 196.65 771.12"/><polygon class="uuid-f035f06b-5280-47b4-9d9e-48c1b20821cf" points="827.35 771.12 512 888.08 512 888.08 827.35 729.62 827.35 771.12"/><polygon class="uuid-f035f06b-5280-47b4-9d9e-48c1b20821cf" points="827.35 688.11 512 888.08 512 888.08 827.35 646.61 827.35 688.11"/></g></svg>