<?xml version="1.0" encoding="UTF-8"?><svg id="uuid-9cfa1513-fdb1-4a05-9081-6117682ffc9c" xmlns="http://www.w3.org/2000/svg" xmlns:xlink="http://www.w3.org/1999/xlink" viewBox="0 0 1024 1024"><defs><style>.uuid-c5b5529f-dc24-4547-855d-0b773c5feacc{fill:#fff;}.uuid-00d97ae0-d47b-49f6-a5cd-a9534057a738{fill:url(#uuid-839d4041-e757-4681-861b-617ff67611e4);}.uuid-ee9ce546-2359-4977-b08b-b627d566ec55{fill:url(#uuid-2e9a98c4-27ec-441e-bb99-a1f9fb667518);}.uuid-06ba0272-3ef2-4290-aca8-5027e9c54ff2{fill:url(#uuid-c744ed5d-8b7e-4e34-9fb5-5d853886d063);}.uuid-194d4abf-e0a0-4c02-80b1-f5e87af26189{fill:url(#uuid-97041e2e-d2c8-475d-b2dc-a0a28dbeb6e6);}</style><linearGradient id="uuid-2e9a98c4-27ec-441e-bb99-a1f9fb667518" x1="512" y1="687.34" x2="891.91" y2="687.34" gradientUnits="userSpaceOnUse"><stop offset="0" stop-color="#656bce"/><stop offset="1" stop-color="#274b9c"/></linearGradient><linearGradient id="uuid-97041e2e-d2c8-475d-b2dc-a0a28dbeb6e6" x1="132.09" y1="687.34" x2="512" y2="687.34" gradientUnits="userSpaceOnUse"><stop offset="0" stop-color="#aed155"/><stop offset=".32" stop-color="#a4cd50"/><stop offset=".86" stop-color="#8bc544"/><stop offset=".99" stop-color="#84c341"/></linearGradient><linearGradient id="uuid-c744ed5d-8b7e-4e34-9fb5-5d853886d063" y1="219.76" x2="1024" y2="219.76" xlink:href="#uuid-2e9a98c4-27ec-441e-bb99-a1f9fb667518"/><linearGradient id="uuid-839d4041-e757-4681-861b-617ff67611e4" x1="0" y1="219.76" y2="219.76" xlink:href="#uuid-97041e2e-d2c8-475d-b2dc-a0a28dbeb6e6"/></defs><polygon class="uuid-ee9ce546-2359-4977-b08b-b627d566ec55" points="891.91 838.68 512 979.58 512 536 891.91 395.11 891.91 838.68"/><polygon class="uuid-194d4abf-e0a0-4c02-80b1-f5e87af26189" points="132.09 838.68 512 979.58 512 536 132.09 395.11 132.09 838.68"/><polygon class="uuid-06ba0272-3ef2-4290-aca8-5027e9c54ff2" points="1024 225.05 644.09 44.42 512 214.48 891.79 395.11 1024 225.05"/><polygon class="uuid-00d97ae0-d47b-49f6-a5cd-a9534057a738" points="0 225.05 379.91 44.42 512 214.48 132.21 395.11 0 225.05"/><polygon class="uuid-c5b5529f-dc24-4547-855d-0b773c5feacc" points="132.09 788.68 512 929.58 512 929.58 132.09 738.68 132.09 788.68"/><polygon class="uuid-c5b5529f-dc24-4547-855d-0b773c5feacc" points="891.91 788.68 512 929.58 512 929.58 891.91 738.68 891.91 788.68"/><polygon class="uuid-c5b5529f-dc24-4547-855d-0b773c5feacc" points="891.91 688.68 512 929.58 512 929.58 891.91 638.68 891.91 688.68"/></svg>