<?xml version="1.0" encoding="UTF-8"?><svg id="uuid-3195fa35-725a-40eb-a083-52e2bc737a59" xmlns="http://www.w3.org/2000/svg" viewBox="0 0 1024 1024"><defs><style>.uuid-07582af8-a44a-4aaa-b00f-0ba4c58b900d{fill:#fff;}</style></defs><polygon points="891.91 838.68 512 979.58 512 536 891.91 395.11 891.91 838.68"/><polygon points="132.09 838.68 512 979.58 512 536 132.09 395.11 132.09 838.68"/><polygon points="1024 225.05 644.09 44.42 512 214.48 891.79 395.11 1024 225.05"/><polygon points="0 225.05 379.91 44.42 512 214.48 132.21 395.11 0 225.05"/><polygon class="uuid-07582af8-a44a-4aaa-b00f-0ba4c58b900d" points="132.09 788.68 512 929.58 512 929.58 132.09 738.68 132.09 788.68"/><polygon class="uuid-07582af8-a44a-4aaa-b00f-0ba4c58b900d" points="891.91 788.68 512 929.58 512 929.58 891.91 738.68 891.91 788.68"/><polygon class="uuid-07582af8-a44a-4aaa-b00f-0ba4c58b900d" points="891.91 688.68 512 929.58 512 929.58 891.91 638.68 891.91 688.68"/></svg>