<?xml version="1.0" encoding="UTF-8"?><svg id="uuid-de54ae59-dc6d-440e-ab61-72256045e2ea" xmlns="http://www.w3.org/2000/svg" xmlns:xlink="http://www.w3.org/1999/xlink" viewBox="0 0 1024 1024"><defs><style>.uuid-8917a2b4-4c22-4143-8873-641956103255{fill:url(#uuid-56aa490f-c80a-4963-bc80-cf0b74429e50);}.uuid-a7ae20d7-e2b0-46b6-8f7b-d59a2af31595{fill:#fff;}.uuid-54d81c42-64bf-4a7a-bae8-5002ce8e0373{fill:url(#uuid-f529a9f6-f94e-4db2-84f9-c49a2e0fac98);}.uuid-3c5ff6b4-43a4-448a-873c-b6b25d626725{fill:url(#uuid-aa68a28f-3219-4772-8dc9-84045d953edb);}.uuid-d1efe5a3-7c0e-4434-a308-2334034b72c9{fill:url(#uuid-497b7e9c-ba89-402c-a059-b8fd22f7e081);}</style><linearGradient id="uuid-aa68a28f-3219-4772-8dc9-84045d953edb" x1="512" y1="657.55" x2="827.35" y2="657.55" gradientUnits="userSpaceOnUse"><stop offset="0" stop-color="#656bce"/><stop offset="1" stop-color="#274b9c"/></linearGradient><linearGradient id="uuid-56aa490f-c80a-4963-bc80-cf0b74429e50" x1="196.65" y1="657.55" x2="512" y2="657.55" gradientUnits="userSpaceOnUse"><stop offset="0" stop-color="#aed155"/><stop offset=".32" stop-color="#a4cd50"/><stop offset=".86" stop-color="#8bc544"/><stop offset=".99" stop-color="#84c341"/></linearGradient><linearGradient id="uuid-f529a9f6-f94e-4db2-84f9-c49a2e0fac98" y1="269.42" x2="937" y2="269.42" xlink:href="#uuid-aa68a28f-3219-4772-8dc9-84045d953edb"/><linearGradient id="uuid-497b7e9c-ba89-402c-a059-b8fd22f7e081" x1="87" y1="269.42" y2="269.42" xlink:href="#uuid-56aa490f-c80a-4963-bc80-cf0b74429e50"/></defs><rect class="uuid-a7ae20d7-e2b0-46b6-8f7b-d59a2af31595" width="1024" height="1024" rx="150" ry="150"/><g><polygon class="uuid-3c5ff6b4-43a4-448a-873c-b6b25d626725" points="827.35 783.17 512 900.13 512 531.92 827.35 414.97 827.35 783.17"/><polygon class="uuid-8917a2b4-4c22-4143-8873-641956103255" points="196.65 783.17 512 900.13 512 531.92 196.65 414.97 196.65 783.17"/><polygon class="uuid-54d81c42-64bf-4a7a-bae8-5002ce8e0373" points="937 273.81 621.65 123.87 512 265.03 827.26 414.97 937 273.81"/><polygon class="uuid-d1efe5a3-7c0e-4434-a308-2334034b72c9" points="87 273.81 402.35 123.87 512 265.03 196.74 414.97 87 273.81"/><polygon class="uuid-a7ae20d7-e2b0-46b6-8f7b-d59a2af31595" points="196.65 741.67 512 858.62 512 858.62 196.65 700.17 196.65 741.67"/><polygon class="uuid-a7ae20d7-e2b0-46b6-8f7b-d59a2af31595" points="827.35 741.67 512 858.62 512 858.62 827.35 700.17 827.35 741.67"/><polygon class="uuid-a7ae20d7-e2b0-46b6-8f7b-d59a2af31595" points="827.35 658.66 512 858.62 512 858.62 827.35 617.16 827.35 658.66"/></g></svg>