<?xml version="1.0" encoding="UTF-8"?><svg id="uuid-acea0c6f-2250-4b7f-9a92-1ae7e7e379e5" xmlns="http://www.w3.org/2000/svg" viewBox="0 0 1024 1024"><defs><style>.uuid-f394edbc-08e0-48c5-9ec8-2a2f7ee44127{fill:#fff;}</style></defs><rect class="uuid-f394edbc-08e0-48c5-9ec8-2a2f7ee44127" width="1024" height="1024" rx="150" ry="150"/><g><polygon points="827.35 783.17 512 900.13 512 531.92 827.35 414.97 827.35 783.17"/><polygon points="196.65 783.17 512 900.13 512 531.92 196.65 414.97 196.65 783.17"/><polygon points="937 273.81 621.65 123.87 512 265.03 827.26 414.97 937 273.81"/><polygon points="87 273.81 402.35 123.87 512 265.03 196.74 414.97 87 273.81"/><polygon class="uuid-f394edbc-08e0-48c5-9ec8-2a2f7ee44127" points="196.65 741.67 512 858.62 512 858.62 196.65 700.17 196.65 741.67"/><polygon class="uuid-f394edbc-08e0-48c5-9ec8-2a2f7ee44127" points="827.35 741.67 512 858.62 512 858.62 827.35 700.17 827.35 741.67"/><polygon class="uuid-f394edbc-08e0-48c5-9ec8-2a2f7ee44127" points="827.35 658.66 512 858.62 512 858.62 827.35 617.16 827.35 658.66"/></g></svg>