<?xml version="1.0" encoding="UTF-8"?><svg id="uuid-ab4f4803-a6e5-4cf0-aeac-97a676cd0946" xmlns="http://www.w3.org/2000/svg" xmlns:xlink="http://www.w3.org/1999/xlink" viewBox="0 0 1024 1024"><defs><style>.uuid-f0d782d0-bbed-4e02-87e2-3fa198df3aae{fill:#fff;}.uuid-8614e3cc-140e-4f21-a96f-9641e98013f2{fill:url(#uuid-00d35f34-c73b-4506-a497-51adc0c461b4);}.uuid-57d02e69-f534-4caa-afae-f2f054fb1ce0{fill:url(#uuid-26e80dfa-ede8-45b1-b0bb-2d354048ddd8);}.uuid-ef7ee4b5-9810-4ab7-bf40-2c483f0f50b0{fill:url(#uuid-bb300744-c5b2-45f0-826f-caa77ec62a1d);}.uuid-0812f5e2-d93f-41b3-86c2-9259f95a1426{fill:url(#uuid-3bfc7031-e03a-4960-a484-50038950d1ed);}</style><linearGradient id="uuid-bb300744-c5b2-45f0-826f-caa77ec62a1d" x1="512" y1="657.55" x2="827.35" y2="657.55" gradientUnits="userSpaceOnUse"><stop offset="0" stop-color="#656bce"/><stop offset="1" stop-color="#274b9c"/></linearGradient><linearGradient id="uuid-26e80dfa-ede8-45b1-b0bb-2d354048ddd8" x1="196.65" y1="657.55" x2="512" y2="657.55" gradientUnits="userSpaceOnUse"><stop offset="0" stop-color="#aed155"/><stop offset=".32" stop-color="#a4cd50"/><stop offset=".86" stop-color="#8bc544"/><stop offset=".99" stop-color="#84c341"/></linearGradient><linearGradient id="uuid-00d35f34-c73b-4506-a497-51adc0c461b4" y1="269.42" x2="937" y2="269.42" xlink:href="#uuid-bb300744-c5b2-45f0-826f-caa77ec62a1d"/><linearGradient id="uuid-3bfc7031-e03a-4960-a484-50038950d1ed" x1="87" y1="269.42" y2="269.42" xlink:href="#uuid-26e80dfa-ede8-45b1-b0bb-2d354048ddd8"/></defs><polygon class="uuid-ef7ee4b5-9810-4ab7-bf40-2c483f0f50b0" points="827.35 783.17 512 900.13 512 531.92 827.35 414.97 827.35 783.17"/><polygon class="uuid-57d02e69-f534-4caa-afae-f2f054fb1ce0" points="196.65 783.17 512 900.13 512 531.92 196.65 414.97 196.65 783.17"/><polygon class="uuid-8614e3cc-140e-4f21-a96f-9641e98013f2" points="937 273.81 621.65 123.87 512 265.03 827.26 414.97 937 273.81"/><polygon class="uuid-0812f5e2-d93f-41b3-86c2-9259f95a1426" points="87 273.81 402.35 123.87 512 265.03 196.74 414.97 87 273.81"/><polygon class="uuid-f0d782d0-bbed-4e02-87e2-3fa198df3aae" points="196.65 741.67 512 858.62 512 858.62 196.65 700.17 196.65 741.67"/><polygon class="uuid-f0d782d0-bbed-4e02-87e2-3fa198df3aae" points="827.35 741.67 512 858.62 512 858.62 827.35 700.17 827.35 741.67"/><polygon class="uuid-f0d782d0-bbed-4e02-87e2-3fa198df3aae" points="827.35 658.66 512 858.62 512 858.62 827.35 617.16 827.35 658.66"/></svg>