<?xml version="1.0" encoding="UTF-8"?><svg id="uuid-e0ede315-ee25-447a-b411-b12297cf309b" xmlns="http://www.w3.org/2000/svg" viewBox="0 0 1024 1024"><defs><style>.uuid-ee7888ca-b3ee-4981-9e81-2ef3496ae66f{fill:#fff;}</style></defs><polygon points="827.35 783.17 512 900.13 512 531.92 827.35 414.97 827.35 783.17"/><polygon points="196.65 783.17 512 900.13 512 531.92 196.65 414.97 196.65 783.17"/><polygon points="937 273.81 621.65 123.87 512 265.03 827.26 414.97 937 273.81"/><polygon points="87 273.81 402.35 123.87 512 265.03 196.74 414.97 87 273.81"/><polygon class="uuid-ee7888ca-b3ee-4981-9e81-2ef3496ae66f" points="196.65 741.67 512 858.62 512 858.62 196.65 700.17 196.65 741.67"/><polygon class="uuid-ee7888ca-b3ee-4981-9e81-2ef3496ae66f" points="827.35 741.67 512 858.62 512 858.62 827.35 700.17 827.35 741.67"/><polygon class="uuid-ee7888ca-b3ee-4981-9e81-2ef3496ae66f" points="827.35 658.66 512 858.62 512 858.62 827.35 617.16 827.35 658.66"/></svg>